<svg width="16" height="16" viewBox="0 0 16 16" fill="none" xmlns="http://www.w3.org/2000/svg">
<path fill-rule="evenodd" clip-rule="evenodd" d="M4.34719 2.34784C4.47955 2.34483 4.69011 2.36589 4.81344 2.39296C4.93677 2.41703 5.09921 2.45613 5.17441 2.47719C5.24961 2.50125 5.49627 2.5945 5.72488 2.68775C5.95049 2.781 6.24829 2.88929 6.38365 2.9284C6.52202 2.9675 6.76568 3.01563 6.92811 3.03368C7.08754 3.05173 7.57184 3.06677 8.00199 3.06677C8.43214 3.06677 8.91644 3.05173 9.07888 3.03368C9.23831 3.01563 9.48497 2.9675 9.62635 2.92539C9.76773 2.88629 10.0655 2.77799 10.2881 2.68474C10.5107 2.5945 10.7544 2.50125 10.8296 2.47719C10.9048 2.45613 11.0672 2.41703 11.1905 2.39296C11.3139 2.36589 11.5094 2.34483 11.6267 2.34483C11.744 2.34483 11.9456 2.36589 12.0779 2.38995C12.2103 2.41101 12.3787 2.4441 12.4539 2.46215C12.5291 2.47719 12.6916 2.52833 12.8149 2.57345C12.9382 2.61556 13.1277 2.69678 13.236 2.75092C13.3443 2.80507 13.5248 2.91937 13.6421 3.00059C13.7594 3.08181 13.9399 3.23522 14.0452 3.3405C14.1535 3.44579 14.3159 3.63529 14.4062 3.75862C14.4994 3.88196 14.6318 4.09252 14.701 4.22488C14.7671 4.35723 14.8664 4.57983 14.9145 4.72121C14.9657 4.86259 15.0318 5.12429 15.0679 5.30778C15.101 5.49127 15.1642 5.84321 15.2063 6.08988C15.2454 6.33955 15.3056 6.72458 15.3387 6.94718C15.3718 7.16977 15.4259 7.57586 15.459 7.8496C15.4921 8.12333 15.5402 8.57454 15.5673 8.8573C15.5913 9.14006 15.6274 9.55818 15.6455 9.7898C15.6605 10.0214 15.6846 10.4937 15.6936 10.8426C15.7056 11.348 15.6996 11.5194 15.6605 11.6999C15.6365 11.8233 15.5552 12.0458 15.48 12.1963C15.4048 12.3436 15.2665 12.5602 15.1702 12.6775C15.0709 12.7949 14.8784 12.9753 14.7371 13.0806C14.5987 13.1859 14.4032 13.3122 14.3039 13.3634C14.2046 13.4115 14.0693 13.4717 14.0031 13.4957C13.9369 13.5198 13.7835 13.5649 13.6632 13.598C13.5459 13.6281 13.3864 13.6552 13.3112 13.6552C13.236 13.6552 13.0766 13.6281 12.9563 13.595C12.839 13.5619 12.6525 13.4927 12.5442 13.4416C12.4359 13.3905 12.2464 13.2792 12.123 13.1949C11.9997 13.1077 11.6748 12.8159 11.4011 12.5392C11.1274 12.2654 10.6551 11.7841 10.3483 11.4713C9.96024 11.0742 9.73765 10.8697 9.43383 10.6922L6.64836 10.6772L6.48893 10.7524C6.40471 10.7915 6.24528 10.8968 6.13699 10.987C6.0287 11.0742 5.75797 11.342 5.53538 11.5796C5.31278 11.8202 4.93978 12.2083 4.70816 12.4459C4.47654 12.6836 4.17874 12.9633 4.04638 13.0686C3.91403 13.1739 3.69143 13.3183 3.55005 13.3935C3.40867 13.4687 3.18908 13.5589 3.05974 13.592C2.9334 13.6281 2.76796 13.6552 2.69275 13.6552C2.61755 13.6552 2.45211 13.6281 2.32276 13.592C2.19642 13.5589 2.00391 13.4927 1.89562 13.4506C1.78733 13.4055 1.58579 13.2912 1.44441 13.1979C1.30002 13.1047 1.08344 12.9212 0.948075 12.7768C0.773607 12.5963 0.668325 12.4519 0.569059 12.2564C0.490849 12.106 0.397599 11.8714 0.358494 11.73C0.295325 11.4924 0.292317 11.4352 0.310365 10.8577C0.319389 10.5178 0.343454 10.0455 0.358494 9.80484C0.376542 9.56419 0.412639 9.14006 0.436704 8.8573C0.463776 8.57454 0.517922 8.0752 0.560034 7.74431C0.599139 7.41343 0.668325 6.9201 0.710438 6.64637C0.752551 6.37263 0.833769 5.88533 0.890922 5.56346C0.948075 5.2416 1.03531 4.85958 1.08344 4.71519C1.13458 4.56779 1.20978 4.37829 1.25189 4.29406C1.29701 4.20683 1.40229 4.02634 1.48652 3.89399C1.57375 3.76163 1.73017 3.56009 1.83846 3.44579C1.94375 3.33148 2.13325 3.16303 2.25658 3.06978C2.37991 2.97653 2.60251 2.83816 2.75291 2.76295C2.90031 2.68474 3.13193 2.58849 3.26429 2.54637C3.39664 2.50426 3.58013 2.45613 3.67038 2.43808C3.76062 2.42004 3.89598 2.39296 3.97118 2.37792C4.04638 2.36288 4.21484 2.35085 4.34719 2.34784ZM4.07646 4.89868L3.98622 5.02803L3.97118 6.07484C3.02665 6.07484 2.98454 6.07784 2.8582 6.14402C2.783 6.18313 2.68373 6.27036 2.63259 6.34255C2.55137 6.45686 2.54235 6.49597 2.54235 6.69149C2.54235 6.88701 2.55137 6.92612 2.63259 7.04043C2.68072 7.11262 2.77096 7.19684 2.82812 7.22993C2.91836 7.28408 2.99958 7.29611 3.44477 7.30814L3.95614 7.32318L3.98622 8.35495C4.1276 8.5595 4.22386 8.64673 4.28703 8.68283C4.35321 8.71893 4.45548 8.75502 4.51263 8.76405C4.56979 8.77307 4.68409 8.76104 4.76832 8.73698C4.86157 8.7099 4.96384 8.64974 5.03303 8.57755C5.10522 8.50836 5.16238 8.4121 5.18945 8.31585C5.21953 8.21357 5.23457 8.02707 5.23457 7.7383V7.30814C6.04976 7.30814 6.22723 7.29611 6.29341 7.26904C6.34755 7.24497 6.44381 7.16977 6.50397 7.10359C6.56714 7.03441 6.63031 6.92612 6.64836 6.86596C6.6634 6.80279 6.67844 6.72458 6.67844 6.69149C6.67844 6.6584 6.6634 6.58019 6.64836 6.52003C6.63031 6.45686 6.57316 6.35759 6.51901 6.29743C6.46788 6.23727 6.37162 6.16207 6.30845 6.13199C6.2152 6.08386 6.12496 6.07484 5.71586 6.07484H5.23457C5.23457 5.36192 5.21953 5.1664 5.19246 5.06713C5.16238 4.96185 5.11124 4.88364 5.02701 4.80543C4.95783 4.74226 4.87059 4.67909 4.82848 4.66104C4.78637 4.646 4.68109 4.63096 4.59385 4.63096C4.48556 4.63096 4.39231 4.65202 4.30207 4.70015C4.22687 4.73925 4.1276 4.8295 4.07646 4.89868ZM12.0328 4.80543C11.9756 4.85356 11.8824 4.95884 11.8283 5.04006C11.7741 5.12429 11.717 5.25965 11.6989 5.3529C11.6778 5.47021 11.6778 5.56046 11.6989 5.66273C11.717 5.74094 11.7591 5.85525 11.7891 5.91842C11.8192 5.97858 11.8974 6.08085 11.9636 6.14402C12.0268 6.20719 12.1381 6.2854 12.2133 6.3215C12.3095 6.36662 12.4088 6.38767 12.5592 6.38767C12.7156 6.38767 12.8089 6.37263 12.9202 6.3215C13.0044 6.28239 13.1277 6.19516 13.1999 6.12597C13.2691 6.05679 13.3563 5.93346 13.3894 5.84923C13.4346 5.74696 13.4556 5.63566 13.4556 5.5033C13.4556 5.37696 13.4346 5.25965 13.3955 5.17242C13.3624 5.09721 13.2902 4.98592 13.233 4.91974C13.1759 4.85657 13.0706 4.76934 12.9954 4.72722C12.8871 4.66405 12.8119 4.646 12.6194 4.63999C12.4569 4.63397 12.3396 4.646 12.2584 4.67608C12.1922 4.70015 12.09 4.76031 12.0328 4.80543ZM10.6852 7.09457C10.616 7.12766 10.5107 7.20888 10.4506 7.27205C10.3934 7.33221 10.3152 7.44351 10.2791 7.51871C10.231 7.62098 10.2159 7.71122 10.2159 7.87968C10.2159 8.06016 10.231 8.13536 10.2881 8.25568C10.3302 8.33991 10.4115 8.45121 10.4686 8.50836C10.5258 8.56552 10.6491 8.64673 10.7393 8.68885C10.8627 8.746 10.9529 8.76405 11.1003 8.76104C11.2266 8.76104 11.344 8.73998 11.4312 8.70088C11.5064 8.6708 11.6207 8.5956 11.6869 8.53543C11.753 8.47527 11.8403 8.36097 11.8824 8.28276C11.9305 8.1865 11.9606 8.06918 11.9666 7.93984C11.9756 7.8135 11.9636 7.69318 11.9335 7.59391C11.9065 7.50968 11.8283 7.38034 11.7561 7.29912C11.6839 7.21489 11.5605 7.12164 11.4763 7.08254C11.3921 7.04343 11.2657 7.00734 11.1905 6.99831C11.1153 6.98929 11.001 6.9923 10.9349 7.00734C10.8687 7.01937 10.7574 7.05847 10.6852 7.09457Z" fill="#A5B8EF"/>
</svg>
