<svg width="16" height="16" viewBox="0 0 16 16" fill="none" xmlns="http://www.w3.org/2000/svg">
<path fill-rule="evenodd" clip-rule="evenodd" d="M7.46552 0.0119932L15.1379 0.00854492L15.3207 0.0947518C15.4172 0.143028 15.5552 0.225786 15.6207 0.27751C15.6862 0.332683 15.7966 0.47751 15.9828 0.81889V11.8879L15.8931 12.0603C15.8414 12.1534 15.7621 12.281 15.7172 12.3361C15.669 12.3913 15.531 12.4948 15.1897 12.681H7.43104L7.2069 12.5568C7.05747 12.4741 6.94023 12.3764 6.85517 12.2637C6.78276 12.1706 6.70345 12.0154 6.67241 11.9223C6.62414 11.7706 6.62069 11.1465 6.63793 0.81889L6.72414 0.646476C6.76897 0.549924 6.87241 0.411993 6.94828 0.336131C7.02414 0.260269 7.17241 0.156821 7.27586 0.105097L7.46552 0.0119932ZM8.36552 1.20854C8.33104 1.23958 8.17241 1.52579 8.01379 1.84303C7.85517 2.16027 7.72414 2.46027 7.72414 2.50854C7.72414 2.55337 7.76207 2.63268 7.81035 2.68096C7.85862 2.72923 7.93793 2.76717 7.98966 2.76717C8.04483 2.76717 8.11724 2.74648 8.15517 2.71889C8.1931 2.6913 8.2931 2.52923 8.37931 2.35682C8.46552 2.18096 8.54138 2.03958 8.55173 2.03958C8.56207 2.03958 8.63793 2.18096 8.72414 2.35682C8.81035 2.52923 8.91035 2.6913 8.94828 2.71889C8.98621 2.74648 9.06207 2.76717 9.11379 2.76717C9.16897 2.76717 9.24483 2.72923 9.2931 2.68096C9.34138 2.63268 9.37931 2.55337 9.37931 2.50854C9.37931 2.46027 9.24828 2.16027 9.08966 1.84303C8.93104 1.52579 8.77241 1.23958 8.73793 1.20854C8.7 1.17751 8.64138 1.14648 8.60345 1.13613C8.56552 1.12579 8.51035 1.12579 8.48276 1.13613C8.45517 1.14648 8.40345 1.18096 8.36552 1.20854ZM10.1897 4.82579C10.1138 4.86717 10.0034 4.94992 9.94483 5.01199C9.88276 5.07751 9.8 5.1982 9.75862 5.28441C9.71035 5.37751 9.67241 5.52923 9.66207 5.66372C9.65173 5.78441 9.66552 5.98786 9.68621 6.11199C9.71035 6.23268 9.77931 6.44303 9.84138 6.57751C9.90345 6.70854 10.0276 6.91199 10.1172 7.02579C10.2069 7.13958 10.3448 7.2913 10.4241 7.36372C10.5034 7.43613 10.6552 7.56027 10.7586 7.64303C10.8621 7.72579 11.031 7.83958 11.131 7.8982L11.3103 8.00854C11.6966 7.77061 11.9034 7.62234 12.0172 7.52579C12.131 7.42923 12.3138 7.24648 12.4241 7.11889C12.5345 6.9913 12.6828 6.76372 12.7586 6.61199C12.831 6.46027 12.9103 6.23268 12.9345 6.11199C12.9552 5.98786 12.969 5.78441 12.9586 5.66372C12.9483 5.52923 12.9103 5.37751 12.8621 5.28441C12.8207 5.1982 12.7379 5.07751 12.6759 5.01199C12.6172 4.94992 12.4897 4.85682 12.3966 4.80854C12.2621 4.73613 12.1759 4.71544 12 4.71544C11.8552 4.71544 11.7379 4.73613 11.6621 4.77751C11.6034 4.80855 11.4966 4.88096 11.431 4.93958L11.3103 5.04303C11.1241 4.88096 11.0172 4.80855 10.9552 4.77751C10.8966 4.74992 10.769 4.71889 10.6724 4.71199C10.5759 4.7051 10.4621 4.71199 10.4138 4.72579C10.3655 4.74303 10.2655 4.78786 10.1897 4.82579ZM13.2448 10.2051C13.2448 10.2568 13.3862 10.5775 13.5621 10.9223C13.8241 11.4327 13.8966 11.5465 13.9759 11.5775C14.0379 11.6005 14.1012 11.6005 14.1655 11.5775C14.2414 11.5465 14.3138 11.4327 14.5759 10.9223C14.7517 10.581 14.8931 10.2568 14.8966 10.2051C14.8966 10.1499 14.8621 10.0775 14.8103 10.0258C14.7621 9.97406 14.6828 9.93958 14.631 9.93958C14.5759 9.93958 14.5034 9.96027 14.4655 9.98441C14.4276 10.012 14.3276 10.1775 14.2414 10.3499C14.1552 10.5223 14.0793 10.6637 14.069 10.6637C14.0586 10.6637 13.9828 10.5223 13.8966 10.3499C13.8103 10.1775 13.7103 10.012 13.6724 9.98441C13.6345 9.96027 13.5586 9.93958 13.5069 9.93958C13.4517 9.93958 13.3759 9.97406 13.3276 10.0223C13.2793 10.0706 13.2448 10.1499 13.2448 10.2051ZM2.5931 3.6982C2.61034 3.6982 2.62759 3.72579 2.63793 3.75682C2.64483 3.7913 3.22759 5.96717 3.93103 8.59475C4.63448 11.2189 5.23448 13.4465 5.26207 13.543C5.28966 13.6361 5.36207 13.8051 5.42414 13.9189C5.48621 14.0292 5.62069 14.2016 5.72414 14.2982C5.83104 14.3948 6 14.5154 6.10345 14.5637C6.2069 14.612 6.36207 14.6741 6.44828 14.6948C6.53448 14.7189 6.72069 14.7361 6.86207 14.7361C7.07931 14.7327 7.35173 14.6706 8.60345 14.3361C9.41724 14.1189 10.1103 13.9396 10.1345 13.9396C10.1655 13.9396 10.1724 13.9499 10.1517 13.9706C10.1345 13.9879 9.42069 14.4051 8.56897 14.8982C7.71379 15.3879 6.91724 15.8396 6.7931 15.9016C6.61035 15.9879 6.52759 16.0085 6.33448 16.0085C6.14828 16.0085 6.06552 15.9879 5.89655 15.9051C5.78276 15.8465 5.63103 15.7396 5.55862 15.6672C5.47931 15.5844 4.46207 13.8568 2.82759 11.0223C1.39655 8.53958 0.172414 6.41199 0.110345 6.2913C0.0137931 6.1051 0 6.04303 0 5.82579C0.00344828 5.62234 0.0206897 5.53958 0.103448 5.37061C0.158621 5.25682 0.255172 5.11199 0.317241 5.05337C0.37931 4.9913 0.910345 4.66372 1.5 4.32234C2.08621 3.98096 2.57931 3.70165 2.5931 3.6982ZM1.70345 6.00854C1.71724 6.24303 1.73793 6.56372 1.74828 6.71544C1.76437 6.89935 1.7931 7.01659 1.83448 7.06717C1.87931 7.12579 1.93103 7.14648 2.03448 7.14648C2.14483 7.14648 2.18621 7.12579 2.24483 7.04992C2.31034 6.96372 2.31379 6.93268 2.28621 6.58441C2.27241 6.38096 2.26897 6.21544 2.28276 6.21544C2.3 6.21544 2.44138 6.2982 2.60345 6.4051C2.76552 6.50854 2.93448 6.59475 2.98276 6.59475C3.03103 6.59475 3.09655 6.58096 3.12759 6.56372C3.16207 6.54648 3.21035 6.48785 3.23448 6.43613C3.26552 6.36027 3.26897 6.30854 3.24138 6.23958C3.21724 6.17061 3.04483 6.03958 2.63793 5.76717C2.18966 5.46717 2.04483 5.38786 1.95172 5.38786C1.86207 5.38786 1.81379 5.41199 1.75517 5.48096C1.68621 5.57061 1.68276 5.5982 1.70345 6.00854ZM6.02414 1.32234C6.05862 1.31889 6.06897 1.58786 6.06897 3.80165L5.63448 3.30854C5.39655 3.03958 5.16552 2.7982 5.11724 2.77406C5.07241 2.74992 5 2.73958 4.95517 2.74992C4.91379 2.75682 4.85172 2.79475 4.81724 2.82579C4.77931 2.86717 4.71035 3.11544 4.46552 4.28096L4.53793 4.37751C4.58966 4.44648 4.64483 4.47751 4.74483 4.48441C4.84138 4.4913 4.89655 4.47751 4.94138 4.43268C4.97241 4.3982 5.03103 4.23613 5.06897 4.07751C5.1069 3.91544 5.14483 3.74992 5.15517 3.7051C5.17241 3.63268 5.18621 3.64303 5.33448 3.80854C5.42414 3.90854 5.54828 4.03958 5.61035 4.10165C5.68276 4.17406 5.75862 4.21544 5.81724 4.21544C5.87241 4.21544 5.94828 4.1913 6.06897 4.11199V7.94648C6.06897 11.3189 6.07586 11.8085 6.12414 11.9913C6.15172 12.1051 6.22759 12.2879 6.28621 12.4016C6.34828 12.5154 6.48621 12.6879 6.60345 12.7948C6.71724 12.8982 6.90345 13.0292 7.01724 13.081C7.13104 13.1361 7.31035 13.1948 7.41379 13.2154C7.52414 13.2361 8.18621 13.2499 9.01379 13.2499C9.78966 13.2499 10.4172 13.2568 10.4103 13.2672C10.4034 13.2741 9.67586 13.4775 8.7931 13.7154C7.69655 14.0154 7.1069 14.1568 6.93104 14.1706C6.73793 14.1844 6.62759 14.1741 6.5 14.1327C6.40345 14.0982 6.26207 14.0223 6.18276 13.9637C6.1069 13.9016 5.9931 13.781 5.93448 13.6982C5.84483 13.5637 5.63793 12.8327 4.44138 8.38786C3.17586 3.67406 3.05862 3.20854 3.05517 2.95682C3.05517 2.73268 3.06897 2.64648 3.13793 2.50854C3.18276 2.41199 3.2931 2.26372 3.37931 2.18096C3.46552 2.09475 3.58966 2.00165 3.65517 1.97406C3.72069 1.94648 4.27241 1.78786 4.87931 1.62234C5.48621 1.46027 6.00345 1.32234 6.02414 1.32234Z" fill="#A5B8EF"/>
</svg>
