<svg width="19" height="19" viewBox="0 0 19 19" fill="none" xmlns="http://www.w3.org/2000/svg">
<path d="M5.55304 7.6181L7.63104 5.54044L8.06404 5.10759L9.05904 4.06876L12.565 7.6181L14.6 5.54044L9.05904 0L3.51904 5.54044L5.55304 7.6181Z" fill="white"/>
<path d="M9.07405 11.1028L11.125 9.05206L9.07405 7.00146L7.02405 9.05206L9.07405 11.1028Z" fill="white"/>
<path d="M12.565 10.5181L9.05904 14.0241L7.84703 12.8122L7.63104 12.5524L5.55304 10.5181L3.51904 12.5524L9.05904 18.1362L14.6 12.5524L12.565 10.5181Z" fill="white"/>
<path d="M2.05101 11.1189L4.10201 9.06828L2.05101 7.01758L0 9.06828L2.05101 11.1189Z" fill="white"/>
<path d="M16.085 11.1125L18.136 9.06193L16.085 7.01123L14.035 9.06193L16.085 11.1125Z" fill="white"/>
</svg>
