<svg width="30" height="30" viewBox="0 0 30 30" fill="none" xmlns="http://www.w3.org/2000/svg">
<path fill-rule="evenodd" clip-rule="evenodd" d="M8.83327 4.04691C8.37377 4.17159 7.92731 4.57136 7.75599 5.01159C7.6745 5.22105 7.65781 5.36451 7.64129 5.99687L7.62197 6.73696L6.01649 6.74921C4.47214 6.76095 4.40653 6.76477 4.2923 6.85007C4.01109 7.05995 3.99569 7.11283 4.00068 7.85069C4.03149 12.3771 6.42423 16.4295 9.77705 17.6336C10.02 17.7208 10.1506 17.8015 10.3364 17.9788C10.9548 18.5692 11.9064 19.2628 12.762 19.7469L13.1382 19.9597L13.1384 21.1527L13.1387 22.3457H12.8545C11.7663 22.3457 10.7322 23.1832 10.4657 24.2803C10.4341 24.4104 10.4079 24.7393 10.4075 25.0112C10.4068 25.4562 10.4168 25.5219 10.5079 25.6682C10.5635 25.7576 10.6837 25.8688 10.775 25.9153C10.9367 25.9978 11.0473 26 14.9888 26C18.9302 26 19.0408 25.9978 19.2025 25.9153C19.2938 25.8688 19.414 25.7576 19.4697 25.6682C19.5607 25.5219 19.5707 25.4562 19.5701 25.0112C19.5696 24.7393 19.5434 24.4104 19.5118 24.2803C19.2453 23.1832 18.2112 22.3457 17.123 22.3457H16.8388L16.8395 21.1527L16.8402 19.9597L17.193 19.7663C17.9681 19.3412 18.8656 18.6994 19.5722 18.0649C19.8653 17.8017 19.97 17.7367 20.2606 17.6374C22.754 16.7855 24.8221 14.2321 25.6396 10.9961C25.9192 9.88938 25.9698 9.49476 25.9916 8.25421C26.0138 6.98317 26.0142 6.98519 25.7028 6.82647C25.5418 6.74435 25.4516 6.73993 23.9443 6.73993H22.3556L22.3363 5.99833C22.3197 5.36266 22.3032 5.22143 22.2208 5.00966C22.0871 4.66607 21.7663 4.32717 21.4077 4.15074L21.1215 4.00998L15.0757 4.00177C10.3754 3.99537 8.98618 4.00543 8.83327 4.04691ZM7.64396 10.5554C7.66203 12.8021 7.67072 13.0332 7.7538 13.4754C7.82642 13.8619 8.00687 14.4902 8.17767 14.9513C8.21966 15.0646 7.8047 14.6407 7.52538 14.2849C6.57502 13.0743 5.91026 11.5782 5.59451 9.93938C5.50403 9.46974 5.43196 8.90415 5.37986 8.25537L5.36867 8.11565H6.49651H7.62434L7.64396 10.5554ZM24.6692 8.29965C24.6692 8.56336 24.5533 9.46153 24.4509 9.99191C24.086 11.8812 23.1417 13.7736 22.012 14.8792L21.7562 15.1295L21.9445 14.5664C22.2977 13.5095 22.3106 13.3774 22.3335 10.5769L22.3536 8.11565H23.5114H24.6692V8.29965Z" fill="#D2DCF7"/>
</svg>
