<svg width="16" height="16" viewBox="0 0 16 16" fill="none" xmlns="http://www.w3.org/2000/svg">
<path d="M4.10938 0.485618C4.2625 0.466868 4.43125 0.444993 4.48438 0.438743C4.5375 0.435618 4.60625 0.426243 4.64062 0.426243C4.675 0.423118 4.88438 0.441868 5.10938 0.469993C5.33437 0.494993 5.65625 0.551243 5.82812 0.594993C6 0.638743 6.24687 0.716868 6.375 0.769993C6.50313 0.819993 6.71562 0.919993 6.84375 0.988743C6.97188 1.06062 7.17812 1.18249 7.29688 1.26374C7.41563 1.34499 7.62187 1.50749 7.75 1.61999C7.87813 1.73249 7.99062 1.82624 8 1.82624C8.00937 1.82624 8.12187 1.73249 8.25 1.61999C8.37813 1.50749 8.58125 1.34499 8.70312 1.26374C8.825 1.18249 9.02812 1.06062 9.15625 0.988743C9.28438 0.919993 9.49687 0.819993 9.625 0.769993C9.75313 0.716868 10 0.638743 10.1719 0.594993C10.3438 0.551243 10.675 0.494993 10.9062 0.466868C11.1375 0.441868 11.3969 0.426243 11.4844 0.435618C11.5688 0.444993 11.7594 0.469993 11.9062 0.485618C12.0531 0.504368 12.2844 0.548118 12.4219 0.579368C12.5594 0.613743 12.7844 0.682493 12.9219 0.729368C13.0594 0.779368 13.2781 0.869993 13.4062 0.935618C13.5344 1.00124 13.7531 1.12624 13.8906 1.21687C14.0281 1.30749 14.2531 1.47937 14.3875 1.59499C14.525 1.71374 14.7344 1.92312 14.8531 2.06062C14.9719 2.19812 15.1281 2.40124 15.2031 2.51374C15.2781 2.62624 15.4031 2.83562 15.4812 2.98249C15.5594 3.12937 15.6781 3.41687 15.7469 3.62312C15.8156 3.82937 15.9 4.16374 15.9375 4.36687C15.975 4.59812 16 4.86999 16 5.10749C16 5.31374 15.9781 5.62624 15.9531 5.80437C15.925 5.97937 15.875 6.25124 15.8375 6.40437C15.8031 6.55749 15.725 6.82624 15.6656 6.99812C15.6062 7.16999 15.4937 7.45124 15.4187 7.62312C15.3438 7.79499 15.1937 8.08874 15.0875 8.27937C14.9844 8.46999 14.7969 8.76999 14.6781 8.95124C14.5563 9.13249 14.3375 9.44187 14.1844 9.63874C14.0344 9.83562 13.7094 10.2231 13.4625 10.4981C13.2125 10.7731 12.8 11.2012 12.5437 11.4481C12.2875 11.695 11.8938 12.0544 11.6719 12.2481C11.45 12.4387 11.1187 12.7169 10.9375 12.8637C10.7563 13.0106 10.35 13.3231 10.0312 13.5575C9.7125 13.795 9.125 14.2075 8 14.9669L7.27187 14.4762C6.875 14.2075 6.2875 13.795 5.96875 13.5575C5.65 13.3231 5.24375 13.0106 5.0625 12.8637C4.88461 12.7196 4.56523 12.449 4.34073 12.2588L4.32812 12.2481C4.10313 12.0544 3.7125 11.695 3.45625 11.4481C3.2 11.2012 2.7875 10.7731 2.5375 10.4981C2.29062 10.2231 1.96562 9.83562 1.81562 9.63874C1.6625 9.44187 1.44375 9.13249 1.32187 8.95124C1.20312 8.76999 1.03125 8.49499 0.94375 8.34187C0.85625 8.18874 0.721875 7.92624 0.646875 7.76374C0.56875 7.60124 0.45625 7.32624 0.390625 7.15437C0.328125 6.98249 0.240625 6.71374 0.2 6.56062C0.159375 6.40749 0.096875 6.11062 0.0625 5.90437C0.025 5.66687 0 5.38562 0 5.13874C0 4.89187 0.021875 4.61062 0.0625 4.37312C0.1 4.16687 0.184375 3.82937 0.253125 3.62312C0.321875 3.41687 0.440625 3.12937 0.51875 2.98249C0.596875 2.83562 0.721875 2.62624 0.796875 2.51374C0.871875 2.40124 1.02813 2.19812 1.14688 2.06062C1.26562 1.92312 1.475 1.71374 1.6125 1.59499C1.74687 1.47937 1.97187 1.30749 2.10938 1.21687C2.24688 1.12624 2.46563 1.00124 2.59375 0.935618C2.72187 0.869993 2.94062 0.779368 3.07812 0.729368C3.21563 0.682493 3.44062 0.613743 3.57812 0.579368C3.71563 0.544993 3.95312 0.504368 4.10938 0.485618Z" fill="#A5B8EF"/>
</svg>
