<svg width="23" height="30" viewBox="0 0 23 30" fill="none" xmlns="http://www.w3.org/2000/svg">
<path d="M9.0692 0.268728C9.39739 0.188356 9.75907 0.0945871 9.87293 0.0610984C9.98679 0.0343075 10.4623 0.00751652 10.9446 0.000818782C11.5943 -0.00587896 11.9827 0.0276097 12.4851 0.134774C12.8534 0.215146 13.3491 0.349101 13.5902 0.44287C13.8313 0.52994 14.2934 0.744268 14.6216 0.918409C14.9431 1.09255 15.4455 1.41404 15.7268 1.63507C16.0081 1.86279 16.43 2.26465 16.6644 2.53926C16.9056 2.81387 17.1936 3.19564 17.3074 3.37648C17.428 3.56402 17.6356 3.93239 17.7696 4.2003C17.9035 4.46151 18.0844 4.91696 18.1848 5.19827C18.2786 5.48627 18.3992 6.00869 18.446 6.35697C18.4996 6.70526 18.5465 7.23438 18.5465 7.52908C18.5465 7.82378 18.4996 8.33951 18.446 8.6677C18.3858 8.99588 18.2786 9.48482 18.1982 9.73933C18.1245 9.99385 17.8968 10.523 17.7026 10.9114C17.5017 11.2999 17.14 11.8692 16.8922 12.1773C16.6377 12.4921 16.2291 12.9275 15.9679 13.1485C15.7067 13.3695 15.3316 13.6508 15.1307 13.7848C14.9297 13.912 14.4877 14.1464 14.1595 14.3005C13.8313 14.4545 13.3156 14.6488 13.0209 14.7225L13.0208 14.7225C12.7261 14.7961 12.4047 14.8765 12.1167 14.9301V22.4985L12.8467 22.5186C13.4763 22.532 13.6103 22.5521 13.771 22.6727C13.8715 22.753 14.0188 22.9004 14.0925 22.9942C14.193 23.1281 14.2265 23.2822 14.2265 23.5702C14.2265 23.8649 14.193 24.0055 14.0858 24.1529C14.0054 24.2533 13.8581 24.4007 13.7643 24.4744C13.5902 24.6016 13.4763 24.6083 11.045 24.6083C8.56687 24.6083 8.50659 24.6083 8.31906 24.4677C8.21859 24.3873 8.07124 24.2399 7.99757 24.1462C7.8971 24.0122 7.86361 23.8582 7.86361 23.5702C7.86361 23.2755 7.8971 23.1348 8.00426 22.9875C8.08464 22.887 8.23199 22.7396 8.32576 22.666C8.4798 22.5521 8.63385 22.532 9.9734 22.4985V14.9301L9.79256 14.8899C9.6854 14.8698 9.3639 14.7894 9.0692 14.7225C8.7745 14.6488 8.25878 14.4612 7.93059 14.3005C7.6024 14.1464 7.16035 13.912 6.95942 13.7848C6.75848 13.6508 6.37671 13.3695 6.1222 13.1485C5.86768 12.9275 5.45912 12.5055 5.218 12.2041C4.97688 11.9094 4.6286 11.3669 4.43437 11.0052C4.24683 10.6368 4.01241 10.101 3.91194 9.80631C3.81818 9.51161 3.69762 8.99588 3.64403 8.6677C3.59045 8.33951 3.54357 7.81038 3.54357 7.49559C3.54357 7.1808 3.59045 6.65167 3.64403 6.32349C3.69762 5.9886 3.81818 5.48627 3.91194 5.19827C4.00571 4.91696 4.18655 4.46151 4.32051 4.2003C4.45446 3.93239 4.66209 3.55732 4.78265 3.37648C4.89651 3.19564 5.17112 2.82727 5.39214 2.57275C5.61317 2.31824 6.04852 1.89628 6.36332 1.64846C6.7116 1.36716 7.22063 1.04567 7.69617 0.804548C8.13822 0.59022 8.72092 0.362497 9.0692 0.268728Z" fill="#FFC83D"/>
<path d="M3.81148 17.4283C3.93874 17.3748 4.19325 17.2877 4.38079 17.2408C4.61521 17.1738 5.17782 17.147 7.83012 17.1403V20.5227L7.40816 20.737C7.17374 20.8576 6.83216 21.1188 6.61783 21.3398C6.4102 21.5541 6.16238 21.889 6.06862 22.0766C5.96815 22.2708 5.84089 22.6057 5.78731 22.8133C5.73373 23.0276 5.68685 23.3692 5.68685 23.5702C5.68685 23.7711 5.73373 24.1194 5.79401 24.3404C5.84759 24.5614 5.99494 24.9231 6.1088 25.1374C6.22936 25.3585 6.49727 25.6933 6.725 25.901C6.94602 26.1019 7.26751 26.3363 7.44165 26.4234C7.62249 26.5105 7.93729 26.631 8.14492 26.6846C8.45971 26.765 9.02232 26.7851 11.045 26.7851C13.0678 26.7851 13.6304 26.765 13.9385 26.6846C14.1528 26.631 14.4877 26.5038 14.6752 26.4033C14.8694 26.3095 15.1976 26.0684 15.3986 25.8809C15.5995 25.6867 15.8607 25.3518 15.9813 25.1374C16.0951 24.9164 16.2425 24.5614 16.2961 24.3404C16.3563 24.1194 16.4032 23.7711 16.4032 23.5702C16.4032 23.3692 16.3563 23.0276 16.3028 22.8133C16.2492 22.6057 16.1219 22.2708 16.0215 22.0766C15.9277 21.889 15.6799 21.5541 15.4722 21.3398C15.2579 21.1188 14.9163 20.8576 14.26 20.5227V17.1403L15.9478 17.1604C17.3945 17.1805 17.6892 17.2006 17.9772 17.3078C18.158 17.3748 18.4728 17.5288 18.6604 17.6561C18.8546 17.7766 19.1493 18.0177 19.3167 18.1919C19.4842 18.3727 19.7052 18.6942 19.8124 18.9152C19.9195 19.1363 20.4755 20.8911 21.0515 22.8133C21.9155 25.7067 22.0963 26.3899 22.0963 26.7315C22.0963 26.9659 22.0494 27.3276 21.9958 27.5352C21.9423 27.7496 21.815 28.0844 21.7145 28.272C21.6208 28.4662 21.3863 28.7877 21.1988 28.9886C21.0113 29.1829 20.7367 29.4173 20.5893 29.5044C20.442 29.5914 20.1272 29.7388 19.4507 30H2.63937L2.20402 29.8326C1.9629 29.7388 1.64811 29.5914 1.50076 29.5044C1.35341 29.4173 1.0788 29.1829 0.891263 28.9886C0.703726 28.7877 0.476003 28.4729 0.382235 28.2921C0.288466 28.1045 0.154512 27.7763 0.094232 27.5553C0.00716136 27.2673 -0.0129319 27.0061 0.00716135 26.6511C0.0339523 26.256 0.261676 25.4187 1.0654 22.733C1.62801 20.8509 2.15714 19.1631 2.24421 18.9822C2.32458 18.7947 2.50542 18.5134 2.63937 18.3459C2.78003 18.1785 3.04794 17.9307 3.23547 17.7833C3.42301 17.6427 3.68422 17.4819 3.81148 17.4283Z" fill="#FFC83D"/>
</svg>
