<svg width="20" height="19" viewBox="0 0 20 19" fill="none" xmlns="http://www.w3.org/2000/svg">
<path fill-rule="evenodd" clip-rule="evenodd" d="M9.77502 0.0726923C9.66255 0.139863 9.46601 0.506949 8.16826 3.07292L6.68964 5.99659L6.53841 6.02009C6.45524 6.03303 5.05112 6.2156 3.41815 6.4258C1.78517 6.63596 0.382342 6.82626 0.300733 6.84865C0.124036 6.89714 0.000195459 7.06949 1.27425e-07 7.26722C-0.000156138 7.39241 0.143061 7.5408 2.37273 9.72636L4.74558 12.0523L4.10329 15.2025C3.5046 18.139 3.46468 18.3612 3.5146 18.4794C3.57629 18.6253 3.76068 18.7498 3.91534 18.75C3.97758 18.7501 5.25704 18.1453 6.99221 17.2957C8.62588 16.4958 9.99043 15.8413 10.0245 15.8413C10.0585 15.8413 11.4168 16.4958 13.0429 17.2957C14.669 18.0957 16.0429 18.7501 16.0961 18.75C16.2419 18.7498 16.4268 18.6217 16.4871 18.4792C16.5371 18.3609 16.4977 18.1412 15.9014 15.2181L15.2621 12.084L17.5681 9.81948C18.8364 8.57401 19.9028 7.5124 19.938 7.46035C20.0841 7.24375 19.9588 6.92003 19.7009 6.84781C19.5907 6.81696 13.4601 6.0049 13.3373 6.0049C13.3254 6.0049 12.649 4.68709 11.8341 3.0764C10.5396 0.517781 10.3365 0.138332 10.2255 0.0720416C10.0644 -0.0242176 9.93691 -0.0240262 9.77502 0.0726923ZM6.31476 8.6047C6.4493 8.68508 6.46118 8.71191 7.05589 10.2815C7.22528 10.7286 7.37396 11.0946 7.38635 11.0948C7.39869 11.0951 7.61688 10.5509 7.8712 9.88539C8.2896 8.79052 8.34507 8.66858 8.45423 8.60336C8.75965 8.42091 9.12624 8.62143 9.11288 8.96356C9.11027 9.03088 8.80785 9.86962 8.4409 10.8274C7.70376 12.7514 7.6886 12.7794 7.38338 12.7794C7.08069 12.7794 7.06514 12.7505 6.33015 10.8243C5.90128 9.70045 5.66446 9.02847 5.66446 8.9355C5.66446 8.82248 5.69321 8.76308 5.79729 8.66112C5.95339 8.50817 6.12236 8.48976 6.31476 8.6047ZM10.174 8.5683C10.2292 8.58882 10.3094 8.66204 10.3523 8.73097C10.4273 8.85157 10.4303 8.92467 10.4303 10.6552C10.4303 12.3857 10.4273 12.4588 10.3523 12.5794C10.2039 12.8179 9.90851 12.8497 9.70392 12.6493L9.57109 12.5191V10.6552V8.79125L9.70392 8.66112C9.84448 8.52341 9.98113 8.49642 10.174 8.5683ZM13.133 8.63299C13.3908 8.74953 13.6397 8.98825 13.773 9.24709C13.8723 9.43988 13.8872 9.51103 13.8875 9.79403C13.8878 10.0651 13.871 10.1545 13.7866 10.3299C13.5463 10.8288 13.0642 11.0953 12.4018 11.0953H12.196L12.1823 11.7938C12.1708 12.3827 12.1579 12.508 12.0999 12.5917C11.9722 12.7763 11.7347 12.8285 11.5194 12.7195C11.294 12.6053 11.29 12.5697 11.29 10.6621C11.29 9.46904 11.3038 8.88628 11.3342 8.80101C11.3585 8.73273 11.4332 8.64332 11.5002 8.60233C11.6107 8.53474 11.6839 8.52884 12.2862 8.53914C12.8688 8.54909 12.9728 8.56061 13.133 8.63299ZM12.1885 9.79403V10.215H12.4728C12.7877 10.215 12.8929 10.1682 12.9896 9.98498C13.0643 9.84352 13.0631 9.77933 12.9827 9.6133C12.9006 9.4439 12.7359 9.37302 12.4242 9.37302H12.1885V9.79403Z" fill="#D2DCF7"/>
</svg>
