<svg width="29" height="29" viewBox="0 0 29 29" fill="none" xmlns="http://www.w3.org/2000/svg">
<path fill-rule="evenodd" clip-rule="evenodd" d="M14.3105 0.00104423C14.4055 -0.00489401 14.7797 0.0307354 15.1419 0.0782413C15.5041 0.125747 15.9732 0.208883 16.1989 0.256388C16.4186 0.309833 16.8462 0.446412 17.1431 0.565177C17.4459 0.678003 17.8794 0.879903 18.111 1.01054C18.3426 1.14712 18.6989 1.37872 18.9127 1.52717C19.1264 1.67563 19.5243 2.02598 19.8034 2.30508C20.0825 2.59012 20.4863 3.08299 20.706 3.40959C20.9257 3.7362 21.193 4.20532 21.3058 4.44878C21.4186 4.69225 21.5671 5.06636 21.6324 5.28014C21.7036 5.49391 21.8046 5.85615 21.864 6.0818C21.9412 6.41434 21.9649 6.96066 22.0302 11.2362L22.4162 11.3193C22.63 11.3609 23.0041 11.4915 23.2476 11.6103C23.5801 11.7706 23.8058 11.9369 24.1443 12.2754C24.4471 12.5842 24.6549 12.8573 24.7797 13.1186C24.8806 13.3324 25.0112 13.6649 25.0706 13.8609C25.1538 14.1578 25.1716 14.5794 25.1953 16.5034C25.2072 17.9583 25.1953 19.0568 25.1478 19.5319C25.1122 19.9416 25.0291 20.5533 24.9578 20.8977C24.8925 21.2421 24.7618 21.7647 24.6668 22.0557C24.5659 22.3466 24.358 22.8573 24.2036 23.1839C24.0492 23.5105 23.8058 23.9618 23.6633 24.1934C23.5267 24.425 23.2416 24.8229 23.0397 25.0842C22.8319 25.3454 22.4281 25.7908 22.1371 26.0758C21.8521 26.3549 21.3592 26.7766 21.0504 27.0141C20.7357 27.2457 20.13 27.6139 19.6846 27.8336C19.2452 28.0592 18.6158 28.3264 18.2892 28.4274C17.9626 28.5343 17.4934 28.659 17.25 28.7065C17.0065 28.7599 16.4721 28.8371 16.0623 28.8846C15.6526 28.9321 14.9044 28.9737 14.3996 28.9737C13.8949 28.9737 13.1348 28.9321 12.7072 28.8787C12.2797 28.8312 11.7096 28.7421 11.4305 28.6827C11.1514 28.6174 10.712 28.4986 10.4507 28.4096C10.1894 28.3264 9.7084 28.1245 9.3818 27.9701C9.0552 27.8158 8.59795 27.5723 8.3723 27.4298C8.14665 27.2932 7.74285 27.0082 7.48156 26.8062C7.22028 26.5984 6.76304 26.1827 6.46612 25.8799C6.17515 25.5711 5.80698 25.1614 5.65852 24.9654C5.51601 24.7694 5.28441 24.4369 5.14783 24.2231C5.01719 24.0093 4.77373 23.558 4.60746 23.2136C4.44712 22.8692 4.23335 22.3466 4.1324 22.0557C4.03738 21.7647 3.90674 21.2421 3.84142 20.8977C3.7761 20.5533 3.68703 19.9654 3.6514 19.5913C3.60389 19.1459 3.59202 18.0949 3.60389 16.5628C3.62765 14.5913 3.64546 14.1578 3.7286 13.8609C3.78798 13.6649 3.91862 13.3324 4.01957 13.1186C4.14427 12.8573 4.35211 12.5842 4.65496 12.2754C4.99344 11.9369 5.21909 11.7706 5.55164 11.6103C5.7951 11.4915 6.16921 11.3609 6.76897 11.2362L6.8046 8.86683C6.83429 6.96066 6.85805 6.41434 6.93524 6.0818C6.99463 5.85615 7.09558 5.49391 7.16684 5.28014C7.23216 5.06636 7.38061 4.69225 7.49344 4.44878C7.60627 4.20532 7.87349 3.7362 8.0932 3.40959C8.31292 3.08299 8.71672 2.59012 8.99581 2.31102C9.27491 2.03192 9.66683 1.6875 9.87467 1.53905C10.0766 1.39059 10.4269 1.17088 10.6466 1.04024C10.8664 0.915533 11.2583 0.725509 11.5196 0.618621C11.7808 0.505794 12.2084 0.363277 12.4697 0.297956C12.731 0.226697 13.212 0.137624 13.5386 0.0901178C13.8652 0.0485501 14.2096 0.00698246 14.3105 0.00104423ZM13.0041 3.59368C12.8438 3.64712 12.5469 3.77183 12.3509 3.87278C12.155 3.96779 11.8224 4.1875 11.6146 4.35377C11.4067 4.52004 11.1158 4.81696 10.9732 5.01292C10.8248 5.20888 10.6288 5.52954 10.5398 5.72551C10.4447 5.92147 10.3082 6.29558 10.2369 6.55686C10.1122 6.99629 10.1003 7.18037 10.0825 9.12812L10.0647 11.2184H18.7345C18.6989 7.18631 18.687 6.99629 18.5623 6.55686C18.4911 6.29558 18.3426 5.89178 18.2298 5.66612C18.1169 5.44047 17.8972 5.09605 17.7428 4.90603C17.5825 4.716 17.3272 4.45472 17.1609 4.32408C17.0006 4.19344 16.6918 3.99748 16.478 3.89059C16.2642 3.77776 15.9079 3.62931 15.6763 3.55805C15.3675 3.46304 15.0766 3.42147 14.5481 3.40365C14.1561 3.39178 13.7167 3.40959 13.5683 3.43928C13.4198 3.47491 13.1704 3.54023 13.0041 3.59368ZM13.3604 16.7528C13.2595 16.8003 13.0516 16.9725 12.8972 17.1329C12.7369 17.2932 12.535 17.5723 12.4519 17.7504C12.3094 18.0414 12.2915 18.1483 12.2915 18.7006C12.2915 19.2409 12.3094 19.3656 12.4341 19.621C12.5172 19.7873 12.7547 20.0842 12.9804 20.3039L13.3782 20.6899C13.4198 22.8158 13.4317 22.9701 13.5386 23.1483C13.6039 23.2611 13.7345 23.4036 13.8236 23.4749C13.9542 23.5699 14.0789 23.5996 14.3877 23.5996C14.7025 23.5996 14.8272 23.5699 14.9816 23.469C15.0825 23.3918 15.2191 23.2433 15.2725 23.1424C15.3616 22.982 15.3794 22.7445 15.3972 21.8181L15.421 20.6899C16.0445 20.0842 16.282 19.7873 16.3652 19.621C16.4899 19.3656 16.5077 19.2409 16.5077 18.7006C16.5077 18.1483 16.4899 18.0414 16.3474 17.7504C16.2642 17.5723 16.0683 17.2991 15.9198 17.1447C15.7713 16.9844 15.4922 16.7884 15.3082 16.6994C15.0409 16.5747 14.8569 16.5331 14.4887 16.5212C14.2036 16.5093 13.9186 16.539 13.7761 16.5806C13.6455 16.6281 13.4614 16.7053 13.3604 16.7528Z" fill="white"/>
</svg>
