<svg width="131" height="14" viewBox="0 0 131 14" fill="none" xmlns="http://www.w3.org/2000/svg">
<path d="M4.65314 8.62914L4.15468 12.62C4.1338 12.7936 3.98766 12.9225 3.8128 12.9225H0.344437C0.130437 12.9225 -0.0313683 12.7278 0.00516825 12.5148L2.11907 0.473819C2.17127 0.181806 2.53663 0.0844683 2.72453 0.313343L7.503 6.1878C7.64131 6.35617 7.89707 6.35617 8.03539 6.1878L12.8139 0.313343C12.9991 0.0844683 13.3671 0.181806 13.4193 0.473819L15.5332 12.5148C15.5698 12.7278 15.4079 12.9225 15.1939 12.9225H11.723C11.5507 12.9225 11.4046 12.7936 11.3811 12.62L10.8826 8.62914C10.8435 8.32134 10.4546 8.21611 10.2693 8.46077L8.04583 11.3941C7.90751 11.5756 7.63609 11.5756 7.50039 11.3941L5.27427 8.46077C5.08636 8.21348 4.69751 8.32134 4.66097 8.62914H4.65314Z" fill="white"/>
<path d="M17.7224 0.36084H21.0394C21.2299 0.36084 21.3839 0.516052 21.3839 0.708097V12.5754C21.3839 12.7674 21.2299 12.9227 21.0394 12.9227H17.7224C17.5319 12.9227 17.3779 12.7674 17.3779 12.5754V0.708097C17.3779 0.516052 17.5319 0.36084 17.7224 0.36084Z" fill="white"/>
<path d="M30.2858 8.26874V6.09048C30.2858 5.89844 30.4397 5.74322 30.6302 5.74322H36.5805C36.7632 5.74322 36.9224 5.89054 36.9328 6.07733C36.985 7.02966 36.8989 7.92411 36.6692 8.75806C36.4135 9.69197 36.0011 10.5101 35.4322 11.2178C34.8633 11.9229 34.1456 12.4753 33.2791 12.8699C32.4127 13.2645 31.4158 13.4618 30.2884 13.4618C28.9 13.4618 27.6708 13.1777 26.6034 12.6095C25.536 12.0412 24.6957 11.2441 24.085 10.2234C23.4743 9.20266 23.1689 8.0083 23.1689 6.64294C23.1689 5.61432 23.3542 4.69092 23.7196 3.87013C24.0876 3.04934 24.6017 2.35219 25.2594 1.77868C25.917 1.20518 26.6895 0.765848 27.5742 0.460681C28.4589 0.155515 29.4219 0.00292969 30.4658 0.00292969C31.4132 0.00292969 32.2535 0.147621 32.9842 0.434372C33.715 0.721124 34.3544 1.10258 34.905 1.57349C35.3435 1.94968 35.7401 2.36008 36.0925 2.80731C36.2308 2.98357 36.1603 3.24927 35.9567 3.34135L32.7076 4.81194C32.4962 4.41732 32.217 4.07007 31.8699 3.77279C31.5254 3.47289 31.0556 3.32293 30.4658 3.32293C29.876 3.32293 29.3515 3.44395 28.8634 3.69124C28.3754 3.9359 27.9866 4.3042 27.6969 4.79615C27.4046 5.2881 27.261 5.90107 27.261 6.64294C27.261 7.74522 27.5533 8.60285 28.1405 9.21844C28.7277 9.83403 29.5028 10.1418 30.4632 10.1418C31.1757 10.1418 31.7368 10.005 32.1543 9.72881C32.5693 9.45521 32.8851 9.08427 33.0991 8.616H30.6302C30.4397 8.616 30.2858 8.46078 30.2858 8.26874Z" fill="white"/>
<path d="M39.1384 0.36084H42.3667C42.5572 0.36084 42.7112 0.516052 42.7112 0.708097V4.32012C42.7112 4.51216 42.8652 4.66737 43.0557 4.66737H46.8189C47.0095 4.66737 47.1634 4.51216 47.1634 4.32012V0.708097C47.1634 0.516052 47.3174 0.36084 47.5079 0.36084H50.7362C50.9267 0.36084 51.0807 0.516052 51.0807 0.708097V12.5754C51.0807 12.7674 50.9267 12.9227 50.7362 12.9227H47.5079C47.3174 12.9227 47.1634 12.7674 47.1634 12.5754V8.51353C47.1634 8.32149 47.0095 8.16627 46.8189 8.16627H43.0557C42.8652 8.16627 42.7112 8.32149 42.7112 8.51353V12.5754C42.7112 12.7674 42.5572 12.9227 42.3667 12.9227H39.1384C38.9479 12.9227 38.7939 12.7674 38.7939 12.5754V0.708097C38.7939 0.516052 38.9479 0.36084 39.1384 0.36084Z" fill="white"/>
<path d="M52.3259 3.51511V0.708097C52.3259 0.516052 52.4798 0.36084 52.6703 0.36084H63.0206C63.2111 0.36084 63.3651 0.516052 63.3651 0.708097V3.51511C63.3651 3.70715 63.2111 3.86237 63.0206 3.86237H60.1473C59.9568 3.86237 59.8028 4.01758 59.8028 4.20963V12.578C59.8028 12.7701 59.6488 12.9253 59.4583 12.9253H56.23C56.0395 12.9253 55.8856 12.7701 55.8856 12.578V4.20963C55.8856 4.01758 55.7316 3.86237 55.5411 3.86237H52.6677C52.4772 3.86237 52.3232 3.70715 52.3232 3.51511H52.3259Z" fill="white"/>
<path d="M72.4783 0.36084H76.1972C76.4634 0.36084 76.6278 0.652854 76.4921 0.88436L72.3635 7.90582C72.3322 7.95844 72.3165 8.02158 72.3165 8.08208V12.5754C72.3165 12.7674 72.1625 12.9227 71.972 12.9227H68.6524C68.4619 12.9227 68.3079 12.7674 68.3079 12.5754V8.11892C68.3079 8.05578 68.2923 7.99527 68.2609 7.94265L64.114 0.886989C63.9783 0.655484 64.1428 0.363469 64.409 0.363469H68.1305C68.261 0.363469 68.381 0.439762 68.4384 0.558146L69.9938 3.77818C70.1191 4.03863 70.4871 4.03863 70.6123 3.77818L72.1678 0.558146C72.2252 0.439762 72.3452 0.363469 72.4757 0.363469L72.4783 0.36084Z" fill="white"/>
<path d="M90.5895 9.60217H86.2051C86.0146 9.60217 85.8606 9.44695 85.8606 9.25491V0.707608C85.8606 0.515564 85.7066 0.360352 85.5161 0.360352H82.2878C82.0973 0.360352 81.9434 0.515564 81.9434 0.707608V12.5749C81.9434 12.767 82.0973 12.9222 82.2878 12.9222H90.5895C90.78 12.9222 90.934 12.767 90.934 12.5749V9.94943C90.934 9.75738 90.78 9.60217 90.5895 9.60217Z" fill="white"/>
<path d="M90.5895 9.60217H86.2051C86.0146 9.60217 85.8606 9.44695 85.8606 9.25491V0.707608C85.8606 0.515564 85.7066 0.360352 85.5161 0.360352H82.2878C82.0973 0.360352 81.9434 0.515564 81.9434 0.707608V12.5749C81.9434 12.767 82.0973 12.9222 82.2878 12.9222H90.5895C90.78 12.9222 90.934 12.767 90.934 12.5749V9.94943C90.934 9.75738 90.78 9.60217 90.5895 9.60217Z" fill="url(#paint0_linear_429_3722)"/>
<path d="M102.714 0.360352H99.4859C99.2954 0.360352 99.1414 0.515564 99.1414 0.707608V8.43675C99.1414 8.93922 99.0135 9.34962 98.7578 9.66531C98.502 9.98363 98.1079 10.1415 97.5756 10.1415C97.0432 10.1415 96.6465 9.98363 96.3907 9.66531C96.135 9.34962 96.0071 8.93922 96.0071 8.43675V0.707608C96.0071 0.515564 95.8531 0.360352 95.6626 0.360352H92.4343C92.2438 0.360352 92.0898 0.515564 92.0898 0.707608V8.79453C92.0898 9.69162 92.236 10.4493 92.5257 11.0649C92.818 11.6805 93.2173 12.1777 93.7288 12.5539C94.2403 12.9301 94.8249 13.2063 95.4825 13.3799C96.1402 13.5536 96.8396 13.6404 97.5756 13.6404C98.3115 13.6404 99.0083 13.5536 99.666 13.3799C100.324 13.2063 100.908 12.9301 101.42 12.5539C101.931 12.1777 102.331 11.6805 102.623 11.0649C102.915 10.4493 103.059 9.69162 103.059 8.79453V0.707608C103.059 0.515564 102.905 0.360352 102.714 0.360352Z" fill="white"/>
<path d="M102.714 0.360352H99.4859C99.2954 0.360352 99.1414 0.515564 99.1414 0.707608V8.43675C99.1414 8.93922 99.0135 9.34962 98.7578 9.66531C98.502 9.98363 98.1079 10.1415 97.5756 10.1415C97.0432 10.1415 96.6465 9.98363 96.3907 9.66531C96.135 9.34962 96.0071 8.93922 96.0071 8.43675V0.707608C96.0071 0.515564 95.8531 0.360352 95.6626 0.360352H92.4343C92.2438 0.360352 92.0898 0.515564 92.0898 0.707608V8.79453C92.0898 9.69162 92.236 10.4493 92.5257 11.0649C92.818 11.6805 93.2173 12.1777 93.7288 12.5539C94.2403 12.9301 94.8249 13.2063 95.4825 13.3799C96.1402 13.5536 96.8396 13.6404 97.5756 13.6404C98.3115 13.6404 99.0083 13.5536 99.666 13.3799C100.324 13.2063 100.908 12.9301 101.42 12.5539C101.931 12.1777 102.331 11.6805 102.623 11.0649C102.915 10.4493 103.059 9.69162 103.059 8.79453V0.707608C103.059 0.515564 102.905 0.360352 102.714 0.360352Z" fill="url(#paint1_linear_429_3722)"/>
<path d="M114.192 0.341994C113.615 0.11575 112.871 0 111.958 0C110.509 0 109.246 0.273598 108.166 0.826055C107.085 1.37588 106.245 2.14932 105.647 3.14111C105.047 4.13553 104.747 5.30095 104.747 6.64001C104.747 7.97906 105.047 9.14711 105.647 10.1389C106.248 11.1333 107.088 11.9041 108.166 12.454C109.244 13.0038 110.509 13.28 111.958 13.28C112.871 13.28 113.618 13.1643 114.192 12.9301C114.706 12.7223 115.183 12.4724 115.627 12.183C115.726 12.1172 115.784 12.0041 115.784 11.8857V8.43154C115.784 8.0685 115.228 8.51573 114.902 8.74987C114.575 8.98137 114.197 9.17868 113.772 9.33126C113.344 9.48647 112.835 9.5654 112.24 9.5654C111.645 9.5654 111.128 9.45754 110.648 9.24182C110.168 9.02872 109.781 8.70251 109.489 8.26581C109.199 7.82911 109.053 7.28717 109.053 6.64001C109.053 5.99284 109.197 5.45354 109.489 5.01421C109.779 4.5775 110.168 4.25129 110.648 4.0382C111.128 3.82247 111.658 3.71462 112.24 3.71462C112.822 3.71462 113.344 3.7909 113.772 3.93823C114.2 4.08818 114.575 4.28285 114.902 4.52225C115.228 4.76165 115.784 5.22466 115.784 4.86162V1.39166C115.784 1.27328 115.726 1.16279 115.63 1.09702C115.186 0.797116 114.706 0.544562 114.189 0.341994H114.192Z" fill="white"/>
<path d="M114.192 0.341994C113.615 0.11575 112.871 0 111.958 0C110.509 0 109.246 0.273598 108.166 0.826055C107.085 1.37588 106.245 2.14932 105.647 3.14111C105.047 4.13553 104.747 5.30095 104.747 6.64001C104.747 7.97906 105.047 9.14711 105.647 10.1389C106.248 11.1333 107.088 11.9041 108.166 12.454C109.244 13.0038 110.509 13.28 111.958 13.28C112.871 13.28 113.618 13.1643 114.192 12.9301C114.706 12.7223 115.183 12.4724 115.627 12.183C115.726 12.1172 115.784 12.0041 115.784 11.8857V8.43154C115.784 8.0685 115.228 8.51573 114.902 8.74987C114.575 8.98137 114.197 9.17868 113.772 9.33126C113.344 9.48647 112.835 9.5654 112.24 9.5654C111.645 9.5654 111.128 9.45754 110.648 9.24182C110.168 9.02872 109.781 8.70251 109.489 8.26581C109.199 7.82911 109.053 7.28717 109.053 6.64001C109.053 5.99284 109.197 5.45354 109.489 5.01421C109.779 4.5775 110.168 4.25129 110.648 4.0382C111.128 3.82247 111.658 3.71462 112.24 3.71462C112.822 3.71462 113.344 3.7909 113.772 3.93823C114.2 4.08818 114.575 4.28285 114.902 4.52225C115.228 4.76165 115.784 5.22466 115.784 4.86162V1.39166C115.784 1.27328 115.726 1.16279 115.63 1.09702C115.186 0.797116 114.706 0.544562 114.189 0.341994H114.192Z" fill="url(#paint2_linear_429_3722)"/>
<path d="M130.414 12.3648L125.886 6.46925C125.787 6.34034 125.79 6.16145 125.894 6.03517L130.109 0.931524C130.297 0.705279 130.135 0.363281 129.845 0.363281H126.184C126.093 0.408004 126.012 0.444837 125.92 0.48956L122.804 4.27257C122.598 4.52249 122.196 4.37517 122.196 4.05159V0.710542C122.196 0.518497 122.042 0.363281 121.852 0.363281H118.446C118.256 0.363281 118.102 0.518497 118.102 0.710542V12.5778C118.102 12.7699 118.256 12.9251 118.446 12.9251H121.852C122.042 12.9251 122.196 12.7699 122.196 12.5778V8.84219C122.196 8.51071 122.611 8.36865 122.812 8.62909L126.009 12.7909C126.106 12.8383 126.187 12.8778 126.281 12.9251H130.146C130.43 12.9251 130.592 12.5936 130.417 12.3674L130.414 12.3648Z" fill="white"/>
<path d="M130.414 12.3648L125.886 6.46925C125.787 6.34034 125.79 6.16145 125.894 6.03517L130.109 0.931524C130.297 0.705279 130.135 0.363281 129.845 0.363281H126.184C126.093 0.408004 126.012 0.444837 125.92 0.48956L122.804 4.27257C122.598 4.52249 122.196 4.37517 122.196 4.05159V0.710542C122.196 0.518497 122.042 0.363281 121.852 0.363281H118.446C118.256 0.363281 118.102 0.518497 118.102 0.710542V12.5778C118.102 12.7699 118.256 12.9251 118.446 12.9251H121.852C122.042 12.9251 122.196 12.7699 122.196 12.5778V8.84219C122.196 8.51071 122.611 8.36865 122.812 8.62909L126.009 12.7909C126.106 12.8383 126.187 12.8778 126.281 12.9251H130.146C130.43 12.9251 130.592 12.5936 130.417 12.3674L130.414 12.3648Z" fill="url(#paint3_linear_429_3722)"/>
<defs>
<linearGradient id="paint0_linear_429_3722" x1="83.0225" y1="6.64189" x2="89.7365" y2="6.64189" gradientUnits="userSpaceOnUse">
<stop stop-color="#FFD85A"/>
<stop offset="1" stop-color="#FFB800"/>
</linearGradient>
<linearGradient id="paint1_linear_429_3722" x1="93.4065" y1="7.00102" x2="101.598" y2="7.00102" gradientUnits="userSpaceOnUse">
<stop stop-color="#FFD85A"/>
<stop offset="1" stop-color="#FFB800"/>
</linearGradient>
<linearGradient id="paint2_linear_429_3722" x1="106.072" y1="6.64067" x2="114.314" y2="6.64067" gradientUnits="userSpaceOnUse">
<stop stop-color="#FFD85A"/>
<stop offset="1" stop-color="#FFB800"/>
</linearGradient>
<linearGradient id="paint3_linear_429_3722" x1="119.589" y1="6.64482" x2="128.839" y2="6.64482" gradientUnits="userSpaceOnUse">
<stop stop-color="#FFD85A"/>
<stop offset="1" stop-color="#FFB800"/>
</linearGradient>
</defs>
</svg>
