<svg width="16" height="16" viewBox="0 0 16 16" fill="none" xmlns="http://www.w3.org/2000/svg">
<path d="M13.1519 2.87278C13.2941 2.49657 13.4048 2.25315 13.449 2.21837C13.4838 2.18676 13.5376 2.16147 13.5628 2.16147C13.5881 2.16147 13.6387 2.18676 13.6735 2.21521C13.7083 2.24683 13.7778 2.3796 13.8284 2.50922C13.879 2.63884 13.9865 2.91704 14.0655 3.12569C14.1477 3.34066 14.2647 3.58093 14.3374 3.67577C14.4069 3.77061 14.5271 3.90023 14.6061 3.96345C14.6851 4.02352 14.9349 4.16578 15.1593 4.27327C15.387 4.38392 15.5956 4.49773 15.6272 4.52618C15.6588 4.55463 15.6841 4.6147 15.6841 4.65896C15.6841 4.70322 15.6494 4.76644 15.6114 4.80438C15.5703 4.83916 15.3459 4.96245 15.1119 5.07626C14.7768 5.23749 14.6472 5.31969 14.5113 5.45562C14.4164 5.55047 14.2931 5.7117 14.2362 5.81602C14.1825 5.91719 14.0497 6.23649 13.9422 6.52417C13.8347 6.81186 13.7241 7.07109 13.6956 7.1027C13.6672 7.13432 13.6071 7.15961 13.5628 7.15961C13.5186 7.15961 13.4585 7.13432 13.4301 7.1027C13.4016 7.07109 13.2846 6.80237 13.174 6.50836C13.0633 6.21436 12.9401 5.9077 12.899 5.82867C12.8579 5.74963 12.7409 5.59473 12.6334 5.48724C12.4658 5.31336 12.3773 5.2533 11.9663 5.04781C11.7071 4.91819 11.4827 4.7949 11.47 4.77593C11.4574 4.7538 11.4447 4.70322 11.4447 4.65896C11.4447 4.6147 11.4669 4.55779 11.4985 4.52618C11.5301 4.49773 11.7482 4.38076 11.9822 4.26695C12.2161 4.15314 12.4722 4.00455 12.5512 3.93816C12.6302 3.87177 12.744 3.739 12.8104 3.64415C12.8737 3.54615 13.0222 3.21421 13.1519 2.87278Z" fill="#A5B8EF"/>
<path d="M5.55824 3.05614C5.58037 3.01504 5.63411 2.9613 5.68469 2.93601C5.73843 2.90439 5.82063 2.89175 5.91231 2.90123C6.00399 2.91072 6.07986 2.94233 6.12728 2.98975C6.17154 3.03401 6.39916 3.59673 6.73427 4.48508C7.03144 5.2691 7.33493 6.03732 7.40764 6.19223C7.48352 6.34713 7.62262 6.59056 7.7143 6.72966C7.80914 6.86876 7.97353 7.08373 8.07785 7.20387C8.18534 7.324 8.38451 7.51684 8.52361 7.62749C8.65955 7.73814 8.87136 7.89621 8.99465 7.97524C9.11795 8.05112 9.66487 8.33564 10.2118 8.6012C10.7587 8.86675 11.2456 9.11334 11.2961 9.14811C11.3436 9.18289 11.3973 9.26509 11.4163 9.33147C11.4479 9.42948 11.4416 9.46741 11.3941 9.57174C11.3372 9.69187 11.293 9.714 10.196 10.2546C9.40563 10.6466 8.97252 10.8774 8.77652 11.0165C8.62161 11.1271 8.35922 11.3611 8.19166 11.535C8.02411 11.7088 7.80598 11.9712 7.70797 12.1198C7.61313 12.2684 7.48035 12.4865 7.42029 12.6098C7.36022 12.7331 7.05989 13.4982 6.75324 14.317C6.298 15.5309 6.17787 15.8186 6.10199 15.8882C6.04825 15.9388 5.96921 15.9862 5.92179 15.9957C5.86489 16.0083 5.79534 15.9925 5.72579 15.9577C5.66888 15.9229 5.6025 15.8692 5.58037 15.8344C5.55507 15.7997 5.28952 15.1105 4.98603 14.3012C4.68253 13.4918 4.38853 12.7394 4.33162 12.6256C4.27472 12.5118 4.16407 12.3221 4.08503 12.1988C4.00916 12.0756 3.85425 11.8701 3.74677 11.7404C3.63928 11.6108 3.44644 11.4117 3.31682 11.301C3.1872 11.1904 2.97539 11.026 2.84577 10.9375C2.71616 10.8521 2.12498 10.5423 1.5338 10.2546C0.756102 9.87207 0.439965 9.70136 0.386221 9.63497C0.3388 9.5749 0.313509 9.50219 0.316671 9.42632C0.316671 9.34096 0.341962 9.27773 0.405189 9.21134C0.462094 9.14495 0.813007 8.95843 1.48638 8.62965C2.0333 8.36409 2.56125 8.09854 2.65609 8.04163C2.75093 7.98157 2.93113 7.86143 3.05126 7.76975C3.17456 7.67807 3.40218 7.47258 3.56024 7.31135C3.71831 7.14696 3.93961 6.87192 4.05658 6.69805C4.17039 6.52417 4.30949 6.28074 4.3664 6.16061C4.42014 6.04048 4.70466 5.30704 4.99551 4.5325C5.28636 3.75796 5.53927 3.09408 5.55824 3.05614Z" fill="#A5B8EF"/>
</svg>
