<svg width="30" height="31" viewBox="0 0 30 31" fill="none" xmlns="http://www.w3.org/2000/svg">
<path fill-rule="evenodd" clip-rule="evenodd" d="M14.971 0.000696226C15.4105 -0.00516416 15.5687 0.0241378 15.9379 0.158927C16.1782 0.246832 16.5181 0.422644 16.6939 0.551572C16.8932 0.698082 17.3151 1.15519 17.8133 1.78225C18.3173 2.40931 18.6806 2.80196 18.7861 2.84884C18.8799 2.88401 19.0146 2.93089 19.085 2.94847C19.1612 2.97191 19.7531 2.84298 20.4329 2.66131C21.4174 2.40345 21.7397 2.33899 22.1207 2.33899C22.4195 2.33899 22.7243 2.38001 22.9704 2.45034C23.1814 2.5148 23.5213 2.67889 23.7264 2.81954C23.9374 2.96019 24.1952 3.17702 24.3066 3.30595C24.4121 3.43488 24.5762 3.68688 24.6699 3.86269C24.7578 4.0385 24.8633 4.30222 24.9043 4.44873C24.9454 4.59524 25.0098 5.2809 25.045 5.97243C25.1036 6.92181 25.1446 7.27929 25.2149 7.4258C25.2735 7.52543 25.3849 7.66022 25.4728 7.71882C25.5666 7.78329 26.0705 7.99426 26.6038 8.19937C27.1371 8.39863 27.729 8.65062 27.9224 8.75025C28.1158 8.84988 28.403 9.06671 28.5671 9.2308C28.7253 9.39489 28.9421 9.68205 29.0418 9.87544C29.1473 10.063 29.2762 10.3912 29.3348 10.6021C29.411 10.8834 29.4285 11.1003 29.4051 11.4226C29.3817 11.6629 29.3172 12.0086 29.2469 12.1844C29.1824 12.3602 28.9246 12.8232 28.6784 13.21C28.4323 13.5968 28.11 14.1008 27.9693 14.3235C27.7642 14.6517 27.7173 14.7864 27.7173 14.9974C27.7173 15.1732 27.7701 15.349 27.8755 15.5249C27.9635 15.6714 28.2389 16.105 28.4967 16.4918C28.7546 16.8786 29.0183 17.3123 29.0945 17.4588C29.1707 17.6053 29.2703 17.869 29.3231 18.0448C29.3758 18.2206 29.4168 18.5254 29.4168 18.7188C29.4168 18.9122 29.3758 19.2286 29.3231 19.422C29.2703 19.6154 29.1473 19.9319 29.0476 20.1194C28.9421 20.3128 28.7253 20.5999 28.5671 20.764C28.403 20.9281 28.1158 21.145 27.9224 21.2504C27.729 21.3501 27.1371 21.5962 26.6038 21.8013C26.0705 22.0006 25.5666 22.2115 25.4728 22.2702C25.3849 22.3346 25.2735 22.4694 25.2149 22.569C25.1446 22.7155 25.1036 23.073 25.0508 24.0224C25.004 24.7843 24.9395 25.4113 24.8868 25.6047C24.834 25.7805 24.6992 26.0853 24.582 26.2787C24.4648 26.472 24.3007 26.7065 24.2128 26.7944C24.1249 26.8881 23.8963 27.0639 23.703 27.1929C23.5096 27.3218 23.1814 27.48 22.9704 27.5445C22.7243 27.6148 22.4195 27.6558 22.1207 27.6558C21.7397 27.6558 21.4174 27.5914 20.4329 27.3335C19.3956 27.0581 19.1905 27.0171 18.9971 27.0698C18.8799 27.0991 18.7333 27.1577 18.6806 27.1987C18.622 27.2398 18.2118 27.7203 17.7722 28.2653C17.2214 28.9393 16.858 29.3319 16.6412 29.4784C16.4654 29.6015 16.1196 29.7714 15.8793 29.8535C15.5629 29.959 15.3167 30 15.0003 30C14.6838 30 14.4377 29.959 14.1212 29.8535C13.881 29.7714 13.5352 29.6015 13.3594 29.4784C13.1425 29.3319 12.7792 28.9393 12.2283 28.2653C11.7888 27.7203 11.3786 27.2398 11.32 27.1987C11.2672 27.1577 11.1207 27.0991 10.9976 27.0698C10.8101 27.0171 10.605 27.0581 9.56185 27.3335C8.58316 27.5914 8.26084 27.6558 7.87992 27.6558C7.58104 27.6558 7.2763 27.6148 7.03016 27.5445C6.81919 27.48 6.47929 27.3159 6.27417 27.1753C6.0632 27.0346 5.80534 26.8178 5.69399 26.6889C5.58265 26.56 5.40684 26.2728 5.29549 26.0442C5.19 25.8157 5.07279 25.4641 5.04349 25.2531C5.01419 25.0421 4.96731 24.4502 4.94973 23.9345C4.92628 23.4188 4.88526 22.8972 4.85596 22.7741C4.82666 22.6569 4.73289 22.4811 4.63913 22.3815C4.52192 22.2526 4.21132 22.1002 3.39672 21.7896C2.79897 21.561 2.18362 21.3032 2.01953 21.2211C1.8613 21.1332 1.59759 20.9281 1.4335 20.764C1.27527 20.5999 1.05843 20.3128 0.958805 20.1194C0.853318 19.9319 0.73025 19.6213 0.677506 19.4337C0.624763 19.2521 0.58374 18.9473 0.58374 18.7598C0.58374 18.5781 0.624763 18.2734 0.671646 18.0858C0.718529 17.9042 0.824016 17.6287 0.900201 17.4705C0.976386 17.3181 1.24596 16.8786 1.50382 16.4918C1.76168 16.105 2.03712 15.6714 2.12502 15.5249C2.23051 15.3432 2.28325 15.1791 2.28325 14.9974C2.28325 14.8157 2.23051 14.6517 2.12502 14.47C2.03712 14.3235 1.76168 13.8898 1.50382 13.503C1.24596 13.1162 0.982246 12.6826 0.906061 12.5361C0.829876 12.3895 0.73025 12.1258 0.677506 11.95C0.624763 11.7742 0.58374 11.4695 0.58374 11.2761C0.58374 11.0827 0.624763 10.7662 0.677506 10.5728C0.73025 10.3794 0.853318 10.063 0.952944 9.87544C1.05843 9.68205 1.27527 9.39489 1.4335 9.2308C1.59759 9.06671 1.8613 8.8616 2.01953 8.77369C2.18362 8.69165 2.79897 8.43379 3.39672 8.20523C4.21132 7.89463 4.52192 7.74226 4.63913 7.61333C4.73289 7.51371 4.82666 7.3379 4.85596 7.21483C4.88526 7.09762 4.92628 6.54674 4.94973 6.00173C4.97317 5.45671 5.02591 4.83551 5.06693 4.62454C5.10796 4.41357 5.2193 4.08538 5.31893 3.89199C5.41856 3.6986 5.58851 3.43488 5.69399 3.30595C5.80534 3.17702 6.0632 2.96019 6.27417 2.81954C6.47929 2.67889 6.81919 2.5148 7.03016 2.45034C7.2763 2.38001 7.58104 2.33899 7.87992 2.33899C8.26084 2.33899 8.58316 2.40345 9.56185 2.66131C10.605 2.93675 10.8101 2.97777 10.9976 2.92503C11.1207 2.89573 11.2672 2.83712 11.32 2.7961C11.3786 2.75508 11.7888 2.27453 12.2283 1.72951C12.7851 1.04384 13.1367 0.66878 13.3594 0.51641C13.5352 0.393342 13.8516 0.229251 14.0626 0.147206C14.3556 0.0358585 14.5608 0.00655661 14.971 0.000696226ZM13.881 14.6282C9.9838 18.5312 9.1985 19.3458 9.1399 19.5392C9.09888 19.6681 9.0813 19.8791 9.10474 20.008C9.12232 20.137 9.21023 20.3304 9.29813 20.4417C9.3919 20.5531 9.55013 20.682 9.65561 20.723C9.75524 20.764 9.94863 20.7992 10.0776 20.7992C10.2065 20.7992 10.3706 20.7699 10.4468 20.7347C10.5171 20.6996 12.6913 18.5547 15.2816 15.9702C17.8719 13.3917 20.0285 11.2058 20.0754 11.1178C20.1223 11.0241 20.1574 10.8307 20.1574 10.6783C20.1574 10.4791 20.1223 10.3384 20.0285 10.1978C19.9523 10.0864 19.8175 9.93991 19.7296 9.87544C19.6183 9.7934 19.4542 9.74651 19.2608 9.73479C19.0439 9.72893 18.8974 9.75237 18.7509 9.83442C18.6396 9.89888 16.4478 12.0555 13.881 14.6282ZM9.92519 10.0864C9.79626 10.1743 9.62045 10.3384 9.53841 10.4439C9.45636 10.5435 9.32743 10.7486 9.25125 10.8952C9.1399 11.1061 9.11646 11.2526 9.1106 11.657C9.1106 12.0731 9.13404 12.2079 9.25711 12.4775C9.33915 12.6533 9.52669 12.917 9.66734 13.0576C9.81384 13.1983 10.06 13.3741 10.2241 13.4503C10.3823 13.5265 10.6636 13.6026 10.8394 13.6261C11.0855 13.6554 11.2614 13.6378 11.5837 13.5382C11.9353 13.4386 12.0701 13.3565 12.3397 13.1104C12.5272 12.9287 12.7323 12.665 12.8202 12.4775C12.9492 12.2079 12.9785 12.0789 12.9785 11.6863C12.9726 11.3288 12.9433 11.1471 12.8378 10.9245C12.7675 10.7662 12.6151 10.5201 12.5038 10.3853C12.3709 10.2173 12.1717 10.0708 11.906 9.94577C11.6071 9.79926 11.4196 9.75237 11.1031 9.74065C10.8296 9.72893 10.605 9.75433 10.4292 9.81684C10.2827 9.86958 10.06 9.99265 9.92519 10.0864ZM16.8463 17.4881C16.6412 17.6873 16.5064 17.8924 16.4126 18.1327C16.3071 18.4199 16.2837 18.5723 16.3013 18.9532C16.313 19.3048 16.354 19.4982 16.4654 19.715C16.5416 19.8791 16.7174 20.1135 16.8463 20.2425C16.9811 20.3714 17.2155 20.5413 17.3737 20.6234C17.6257 20.7465 17.7488 20.7699 18.2235 20.7699C18.7158 20.7699 18.8154 20.7523 19.0908 20.6058C19.2549 20.5179 19.4893 20.3538 19.6007 20.2425C19.712 20.1311 19.8761 19.8967 19.964 19.7326C20.1105 19.4572 20.1281 19.3575 20.1281 18.8653C20.1281 18.3906 20.1047 18.2675 19.9816 18.0155C19.9054 17.8573 19.7355 17.617 19.6007 17.4881C19.4718 17.3533 19.2373 17.1833 19.0733 17.1072C18.8447 16.9899 18.6747 16.9606 18.2821 16.9489C17.8836 16.9372 17.7195 16.9548 17.4616 17.0603C17.2624 17.1423 17.028 17.3005 16.8463 17.4881Z" fill="#FFC83D"/>
</svg>
