<svg width="25" height="24" viewBox="0 0 25 24" fill="none" xmlns="http://www.w3.org/2000/svg">
<path d="M20.2947 3.3571C20.3788 3.31299 20.5413 3.25787 20.659 3.2303C20.7711 3.19722 20.9785 3.19171 21.1187 3.20825C21.2588 3.22479 21.4718 3.28543 21.5951 3.34607C21.7241 3.40671 22.2902 3.92492 22.918 4.54237C23.5851 5.20391 24.0559 5.7111 24.1176 5.84341C24.1737 5.96469 24.2353 6.20174 24.2465 6.36713C24.269 6.60418 24.2465 6.73098 24.1512 6.94598C24.0447 7.17752 22.8564 8.37382 16.8417 14.2891C11.5894 19.4492 9.58824 21.3842 9.40326 21.4724C9.22949 21.5606 9.05011 21.5992 8.81468 21.5992C8.61289 21.5992 8.38867 21.5606 8.25414 21.5C8.09719 21.4283 6.86398 20.2596 0.165451 13.6717L0.070158 13.3409C0.00849783 13.1259 -0.0139239 12.9275 0.00849792 12.7786C0.0253143 12.6463 0.0925799 12.4478 0.148635 12.3376C0.210295 12.2218 0.770841 11.6264 1.39865 11.0145C2.12736 10.3033 2.60943 9.87332 2.74957 9.81819C2.86168 9.76858 3.11393 9.72999 3.31012 9.72999C3.55115 9.72999 3.72492 9.76306 3.88187 9.84576C4.0108 9.91191 5.08705 10.9208 8.81468 14.5813L14.4762 9.0078C17.5928 5.94815 20.205 3.4012 20.2947 3.3571Z" fill="white"/>
</svg>
