<svg width="20" height="15" viewBox="0 0 20 15" fill="none" xmlns="http://www.w3.org/2000/svg">
<path fill-rule="evenodd" clip-rule="evenodd" d="M5.05801 0.00376008C5.22346 0 5.48666 0.0263206 5.64082 0.0601613C5.79499 0.090242 5.99803 0.139123 6.09203 0.165444C6.18604 0.195524 6.49436 0.312087 6.78013 0.428649C7.06214 0.545212 7.43438 0.680575 7.60359 0.729456C7.77655 0.778337 8.08112 0.838498 8.28416 0.861059C8.48345 0.883619 9.08882 0.90242 9.62651 0.90242C10.1642 0.90242 10.7696 0.883619 10.9726 0.861059C11.1719 0.838498 11.4802 0.778337 11.657 0.725696C11.8337 0.676815 12.2059 0.541452 12.4842 0.424889C12.7624 0.312087 13.067 0.195524 13.161 0.165444C13.255 0.139123 13.458 0.090242 13.6122 0.0601613C13.7664 0.0263206 14.0108 0 14.1574 0C14.3041 0 14.556 0.0263206 14.7214 0.0564012C14.8869 0.0827218 15.0974 0.124083 15.1914 0.146643C15.2854 0.165444 15.4885 0.229365 15.6426 0.285766C15.7968 0.338407 16.0337 0.43993 16.1691 0.507611C16.3044 0.575293 16.53 0.718176 16.6767 0.819698C16.8233 0.92122 17.0489 1.11298 17.1805 1.24459C17.3159 1.37619 17.5189 1.61308 17.6317 1.76724C17.7483 1.9214 17.9137 2.18461 18.0002 2.35005C18.0829 2.5155 18.207 2.79374 18.2672 2.97047C18.3311 3.14719 18.4138 3.47432 18.459 3.70368C18.5003 3.93305 18.5793 4.37298 18.6319 4.6813C18.6808 4.99339 18.756 5.47468 18.7974 5.75293C18.8387 6.03117 18.9064 6.53878 18.9478 6.88095C18.9891 7.22312 19.0493 7.78713 19.0831 8.14058C19.1132 8.49403 19.1583 9.01668 19.1809 9.30621C19.1997 9.59573 19.2298 10.1861 19.241 10.6222C19.2561 11.2539 19.2486 11.4683 19.1997 11.6939C19.1696 11.848 19.0681 12.1263 18.9741 12.3143C18.8801 12.4985 18.7071 12.7692 18.5868 12.9159C18.4627 13.0625 18.2221 13.2881 18.0453 13.4197C17.8724 13.5513 17.628 13.7093 17.5039 13.7732C17.3798 13.8333 17.2106 13.9085 17.1279 13.9386C17.0452 13.9687 16.8534 14.0251 16.703 14.0665C16.5563 14.1041 16.3571 14.1379 16.2631 14.1379C16.1691 14.1379 15.9698 14.1041 15.8194 14.0627C15.6727 14.0213 15.4396 13.9349 15.3042 13.8709C15.1689 13.807 14.932 13.6679 14.7778 13.5626C14.6237 13.4536 14.2176 13.0888 13.8754 12.7429C13.5332 12.4008 12.9429 11.7991 12.5594 11.4081C12.0743 10.9118 11.7961 10.6561 11.4163 10.4342L7.93448 10.4154L7.73519 10.5094C7.62991 10.5583 7.43062 10.6899 7.29526 10.8027C7.1599 10.9118 6.82149 11.2464 6.54324 11.5435C6.265 11.8443 5.79875 12.3293 5.50922 12.6264C5.2197 12.9234 4.84745 13.2731 4.682 13.4047C4.51656 13.5363 4.23831 13.7168 4.06159 13.8108C3.88487 13.9048 3.61038 14.0176 3.4487 14.059C3.29077 14.1041 3.08397 14.1379 2.98997 14.1379C2.89596 14.1379 2.68916 14.1041 2.52748 14.059C2.36955 14.0176 2.12891 13.9349 1.99354 13.8822C1.85818 13.8258 1.60625 13.6829 1.42953 13.5664C1.24905 13.4498 0.978321 13.2205 0.809117 13.04C0.591033 12.8144 0.45943 12.6339 0.335347 12.3895C0.237585 12.2015 0.121022 11.9082 0.072141 11.7315C-0.00682078 11.4344 -0.0105809 11.363 0.0119796 10.641C0.0232599 10.2161 0.0533406 9.62581 0.072141 9.32501C0.0947015 9.0242 0.139822 8.49403 0.169903 8.14058C0.203744 7.78713 0.271425 7.16296 0.324067 6.74935C0.372948 6.33574 0.45943 5.71909 0.512071 5.37692C0.564712 5.03475 0.666234 4.42562 0.737676 4.02329C0.809117 3.62096 0.91816 3.14343 0.978321 2.96295C1.04224 2.7787 1.13624 2.54182 1.18889 2.43653C1.24529 2.32749 1.37689 2.10189 1.48217 1.93644C1.59121 1.771 1.78674 1.51907 1.9221 1.37619C2.0537 1.23331 2.29059 1.02274 2.44475 0.90618C2.59892 0.789617 2.87716 0.616654 3.06517 0.522652C3.24941 0.424889 3.53894 0.304567 3.70438 0.251926C3.86983 0.199284 4.09919 0.139123 4.21199 0.116563C4.3248 0.0940021 4.494 0.0601613 4.588 0.0413609C4.682 0.0225605 4.89257 0.00752017 5.05801 0.00376008ZM4.7196 3.19231L4.6068 3.35399L4.588 4.6625C3.40734 4.6625 3.35469 4.66626 3.19677 4.74898C3.10277 4.79787 2.97869 4.90691 2.91476 4.99715C2.81324 5.14003 2.80196 5.18891 2.80196 5.43332C2.80196 5.67773 2.81324 5.72661 2.91476 5.86949C2.97493 5.95973 3.08773 6.06501 3.15917 6.10637C3.27197 6.17406 3.37349 6.1891 3.92999 6.20414L4.5692 6.22294L4.6068 7.51265C4.78353 7.76833 4.90385 7.87737 4.98281 7.92249C5.06553 7.96762 5.19337 8.01274 5.26482 8.02402C5.33626 8.0353 5.47914 8.02026 5.58442 7.99018C5.70099 7.95634 5.82883 7.88113 5.91531 7.79089C6.00555 7.70441 6.07699 7.58409 6.11084 7.46376C6.14844 7.33592 6.16724 7.1028 6.16724 6.74183V6.20414C7.18622 6.20414 7.40806 6.1891 7.49079 6.15526C7.55847 6.12517 7.67879 6.03117 7.75399 5.94845C7.83295 5.86197 7.91191 5.72661 7.93448 5.6514C7.95328 5.57244 7.97208 5.47468 7.97208 5.43332C7.97208 5.39196 7.95328 5.2942 7.93448 5.219C7.91191 5.14003 7.84047 5.01595 7.77279 4.94075C7.70887 4.86555 7.58855 4.77155 7.50959 4.73394C7.39302 4.67378 7.28022 4.6625 6.76885 4.6625H6.16724C6.16724 3.77136 6.14844 3.52696 6.1146 3.40288C6.07699 3.27127 6.01307 3.17351 5.90779 3.07575C5.82131 2.99679 5.71227 2.91782 5.65963 2.89526C5.60698 2.87646 5.47538 2.85766 5.36634 2.85766C5.23098 2.85766 5.11441 2.88398 5.00161 2.94415C4.90761 2.99303 4.78353 3.10583 4.7196 3.19231ZM14.665 3.07575C14.5936 3.13591 14.477 3.26751 14.4093 3.36903C14.3417 3.47432 14.2702 3.64352 14.2477 3.76008C14.2213 3.90673 14.2213 4.01953 14.2477 4.14737C14.2702 4.24513 14.3229 4.38802 14.3605 4.46698C14.3981 4.54218 14.4958 4.67002 14.5785 4.74898C14.6575 4.82795 14.7966 4.92571 14.8906 4.97083C15.011 5.02723 15.135 5.05355 15.323 5.05355C15.5186 5.05355 15.6351 5.03475 15.7742 4.97083C15.8795 4.92195 16.0337 4.81291 16.1239 4.72642C16.2104 4.63994 16.3195 4.48578 16.3608 4.3805C16.4172 4.25265 16.4435 4.11353 16.4435 3.94809C16.4435 3.79016 16.4172 3.64352 16.3683 3.53448C16.327 3.44048 16.2367 3.30135 16.1653 3.21863C16.0939 3.13967 15.9623 3.03063 15.8683 2.97799C15.7329 2.89902 15.6389 2.87646 15.3982 2.86894C15.1952 2.86142 15.0486 2.87646 14.947 2.91406C14.8643 2.94414 14.7365 3.01935 14.665 3.07575ZM12.9805 5.93717C12.894 5.97853 12.7624 6.08005 12.6872 6.15902C12.6158 6.23422 12.518 6.37334 12.4729 6.46734C12.4127 6.59519 12.3939 6.70799 12.3939 6.91855C12.3939 7.14416 12.4127 7.23816 12.4842 7.38856C12.5368 7.49385 12.6383 7.63297 12.7098 7.70441C12.7812 7.77585 12.9354 7.87737 13.0482 7.93002C13.2024 8.00146 13.3152 8.02402 13.4994 8.02026C13.6573 8.02026 13.804 7.99394 13.913 7.94506C14.007 7.90745 14.1499 7.81345 14.2326 7.73825C14.3153 7.66305 14.4244 7.52017 14.477 7.4224C14.5372 7.30208 14.5748 7.15544 14.5823 6.99375C14.5936 6.83583 14.5785 6.68543 14.5409 6.56135C14.5071 6.45606 14.4093 6.29438 14.3191 6.19286C14.2289 6.08757 14.0747 5.97101 13.9694 5.92213C13.8641 5.87325 13.7062 5.82813 13.6122 5.81685C13.5182 5.80557 13.3753 5.80933 13.2926 5.82813C13.2099 5.84317 13.0707 5.89205 12.9805 5.93717Z" fill="#D2DCF7"/>
</svg>
