<svg width="20" height="18" viewBox="0 0 20 18" fill="none" xmlns="http://www.w3.org/2000/svg">
<path fill-rule="evenodd" clip-rule="evenodd" d="M8.70999 0C8.93313 0 9.36602 0.0267769 9.66503 0.0669423C9.9685 0.102645 10.446 0.187439 10.7272 0.249918C11.0083 0.312398 11.4412 0.432894 11.6867 0.517687C11.9321 0.602481 12.365 0.785457 12.6462 0.923804C12.9274 1.06215 13.3915 1.32992 13.6726 1.51736C13.9538 1.70926 14.3778 2.03058 14.6098 2.24034C14.8419 2.44563 15.1543 2.75356 15.3016 2.92315C15.4533 3.09274 15.6675 3.35158 15.7791 3.49885C15.8907 3.64613 16.0781 3.91836 16.1986 4.10133C16.3146 4.28431 16.5289 4.66811 16.6672 4.94927C16.81 5.23043 17.0019 5.70349 17.1001 5.99803C17.1983 6.29258 17.292 6.60944 17.3322 6.86828H17.6535C17.832 6.86828 18.1176 6.89952 18.2917 6.93969C18.4657 6.97539 18.7246 7.06911 18.8674 7.14944C19.0146 7.22977 19.2199 7.37705 19.327 7.47969C19.4341 7.5868 19.5814 7.76531 19.6528 7.88134C19.7287 8.00184 19.8403 8.25622 19.8983 8.45259C20.0054 8.79622 20.0099 8.84978 19.992 9.88069C19.9831 10.8268 19.9697 10.9875 19.8849 11.2418C19.8313 11.4025 19.7332 11.6212 19.6618 11.7328C19.5903 11.8443 19.4341 12.0318 19.3137 12.1478C19.1932 12.2683 18.9566 12.4334 18.7826 12.5182C18.5907 12.6119 18.3408 12.6878 18.1355 12.719C17.9525 12.7458 17.5374 12.7592 16.6315 12.7369L16.4798 13.027C16.395 13.1876 16.2209 13.4777 16.087 13.6741C15.9576 13.8705 15.7345 14.1695 15.5961 14.339C15.4578 14.5086 15.1945 14.8032 15.0115 14.9862C14.8285 15.1736 14.525 15.4458 14.3421 15.5976C14.1591 15.7493 13.8155 15.9948 13.5834 16.151C13.3513 16.3027 12.9675 16.5214 12.7355 16.6419C12.5034 16.7579 12.1731 16.9096 11.9991 16.9766C11.825 17.0435 11.526 17.1506 11.3297 17.2086C11.1333 17.2667 10.7897 17.3559 10.571 17.4005C10.3523 17.4496 9.84801 17.5166 8.74123 17.6237L8.51809 17.521C8.36635 17.4496 8.26371 17.3648 8.18784 17.2399C8.09858 17.0971 8.08519 17.0212 8.09858 16.8115C8.11197 16.5928 8.13875 16.5348 8.27263 16.3964C8.35742 16.3116 8.48685 16.2224 8.56271 16.2C8.63412 16.1777 8.92867 16.1465 9.20982 16.1331C9.49098 16.1242 9.9328 16.0706 10.1916 16.0171C10.4505 15.9635 10.87 15.8519 11.1288 15.7671C11.3877 15.6779 11.7804 15.5217 11.9991 15.4146C12.2178 15.3119 12.6194 15.0754 12.8917 14.8969C13.2442 14.6648 13.5477 14.406 13.9672 13.9909C14.3822 13.5714 14.6411 13.268 14.8731 12.9154C15.0517 12.6432 15.2882 12.2415 15.3953 12.0228C15.5024 11.8042 15.6586 11.4114 15.7479 11.1526C15.8327 10.8937 15.9487 10.4742 16.0022 10.2154C16.0915 9.81375 16.1049 9.61292 16.1004 8.7873C16.1004 7.9706 16.087 7.76085 16.0067 7.38151C15.9531 7.13605 15.846 6.74332 15.7702 6.51126C15.6943 6.27919 15.5247 5.86861 15.3953 5.59638C15.2614 5.32415 15.0338 4.92249 14.8821 4.70381C14.7348 4.48514 14.467 4.13704 14.2885 3.93621C14.11 3.73538 13.811 3.44084 13.628 3.27571C13.445 3.11505 13.1014 2.85621 12.8693 2.70001C12.6373 2.54381 12.2847 2.33406 12.0883 2.23587C11.892 2.13769 11.5394 1.99042 11.3074 1.90116C11.0753 1.81637 10.6424 1.68695 10.3478 1.62C9.84354 1.49951 9.75429 1.49058 8.78586 1.49058C7.81742 1.49058 7.72817 1.49951 7.22387 1.62C6.92932 1.68695 6.49643 1.81637 6.26436 1.90116C6.03229 1.99042 5.70651 2.12877 5.53692 2.2091C5.3718 2.29389 5.10403 2.44563 4.93444 2.54381C4.76932 2.64645 4.49262 2.83389 4.32303 2.96331C4.14898 3.09274 3.83212 3.37836 3.61345 3.59257C3.39477 3.81125 3.10022 4.1415 2.96187 4.32447C2.82353 4.50745 2.61824 4.802 2.51559 4.97158C2.40848 5.14117 2.23443 5.46696 2.13179 5.68564C2.02468 5.90431 1.87741 6.27919 1.80154 6.51126C1.72567 6.74332 1.62303 7.12713 1.5784 7.35919C1.52931 7.59126 1.47575 8.05539 1.45344 8.38564C1.42666 8.86316 1.39989 9.01936 1.32848 9.14432C1.27939 9.22912 1.16782 9.34961 1.08303 9.40317C0.958066 9.49242 0.886661 9.50581 0.685834 9.49242C0.534098 9.4835 0.391288 9.44333 0.306494 9.38531C0.230626 9.33176 0.127981 9.20234 0.0788903 9.09523C-0.0103662 8.91226 -0.014829 8.8587 0.0208736 8.34101C0.0431877 8.03308 0.0922787 7.58233 0.132444 7.33688C0.17261 7.09142 0.270792 6.65853 0.351122 6.37737C0.431453 6.09621 0.587652 5.6544 0.699223 5.39555C0.810793 5.13671 0.993769 4.75737 1.1098 4.54762C1.22584 4.33786 1.38203 4.07902 1.4579 3.96745C1.53377 3.85588 1.71675 3.60596 1.86402 3.4096C2.01129 3.21323 2.33262 2.85174 2.58253 2.60183C2.82799 2.35637 3.23857 1.99934 3.49741 1.80744C3.75626 1.61554 4.14452 1.35224 4.36766 1.22281C4.58634 1.08893 4.90766 0.919341 5.08171 0.843473C5.2513 0.763143 5.58601 0.629258 5.81808 0.544464C6.05015 0.459671 6.44287 0.343637 6.68833 0.281158C6.93378 0.223141 7.39346 0.138347 7.71478 0.0892564C8.03164 0.0446282 8.48238 0.00446282 8.70552 0L8.70999 0ZM8.74569 2.85621C9.01792 2.85621 9.44635 2.88298 9.7052 2.92315C9.96404 2.96331 10.3746 3.0615 10.6201 3.14183C10.8655 3.22216 11.2493 3.37836 11.468 3.48993C11.6867 3.59703 12.0303 3.80232 12.2267 3.94513C12.4231 4.08348 12.7578 4.37357 12.9764 4.58332C13.1907 4.79753 13.4763 5.12332 13.6057 5.3063C13.7396 5.48927 13.9404 5.81059 14.052 6.02035C14.1591 6.2301 14.3108 6.56035 14.3822 6.75671C14.4536 6.95308 14.5607 7.31457 14.6143 7.56002C14.6679 7.80548 14.7214 8.2473 14.7348 8.54184C14.7482 8.85424 14.7393 9.24697 14.708 9.47903C14.6812 9.69771 14.6188 10.0413 14.5697 10.2377C14.5206 10.4341 14.409 10.7777 14.3242 10.9964C14.2394 11.2151 14.0743 11.5587 13.9627 11.7551C13.8467 11.9514 13.628 12.2728 13.4763 12.4691C13.3245 12.6655 13.0389 12.9734 12.847 13.1564C12.6551 13.3349 12.3026 13.6116 12.0705 13.7678C11.8384 13.9195 11.4948 14.1159 11.3118 14.2007C11.1288 14.2855 10.8164 14.406 10.6201 14.4685C10.4237 14.5309 10.1024 14.6157 9.90602 14.6604C9.64272 14.7184 9.34817 14.7362 8.79032 14.7362C8.23247 14.7362 7.93792 14.7184 7.67461 14.6604C7.47825 14.6157 7.15693 14.5309 6.96056 14.4685C6.7642 14.406 6.4518 14.2855 6.26882 14.2007C6.08585 14.1159 5.73329 13.9151 5.48783 13.7544C5.2156 13.5714 4.8675 13.2814 4.5908 13.0091C4.33196 12.7458 4.02849 12.3843 3.86336 12.1344C3.70716 11.9023 3.52419 11.5989 3.45725 11.465C3.3903 11.3311 3.26088 11.0098 3.17163 10.7509C3.08237 10.4921 2.97526 10.1128 2.9351 9.903C2.88154 9.6397 2.85923 9.29606 2.85923 8.7873C2.85923 8.24283 2.87708 7.95275 2.93956 7.67159C2.98419 7.46184 3.08237 7.10928 3.15377 6.8906C3.22964 6.67192 3.35906 6.34613 3.44386 6.17655C3.52865 6.00696 3.71609 5.69456 3.85444 5.48481C3.99278 5.27506 4.28733 4.91357 4.51047 4.6815C4.73361 4.44943 5.0951 4.12811 5.31378 3.97637C5.53246 3.82018 5.92965 3.58365 6.20188 3.44976C6.47411 3.32034 6.87577 3.15968 7.09445 3.0972C7.31312 3.03026 7.66569 2.95439 7.87544 2.91869C8.08519 2.88745 8.47346 2.86067 8.74569 2.85621ZM6.03676 9.63523C5.99213 9.72003 5.95643 9.87623 5.95643 9.97887C5.95643 10.1172 6.00998 10.2734 6.14387 10.5367C6.27329 10.7866 6.43395 11.0053 6.64816 11.2195C6.81775 11.3936 7.08106 11.6123 7.22833 11.6971C7.3756 11.7863 7.65676 11.9157 7.85313 11.9827C8.17445 12.0942 8.27263 12.1076 8.79032 12.1076C9.30801 12.1076 9.40619 12.0942 9.72751 11.9827C9.92388 11.9157 10.205 11.7863 10.3523 11.6971C10.4996 11.6123 10.7629 11.398 10.9325 11.224C11.1601 10.9919 11.2984 10.8045 11.4368 10.5278C11.5662 10.269 11.6287 10.0904 11.6242 9.96994C11.6242 9.87176 11.5885 9.72003 11.5439 9.63523C11.4948 9.55044 11.3921 9.43441 11.3074 9.37639C11.2002 9.30498 11.0931 9.27821 10.9414 9.27821C10.8254 9.27821 10.687 9.30052 10.629 9.3273C10.5754 9.35408 10.4817 9.42102 10.4282 9.47457C10.3702 9.52366 10.272 9.67986 10.205 9.81375C10.1426 9.94763 10.0042 10.144 9.8971 10.2466C9.78999 10.3537 9.58916 10.4921 9.44635 10.559C9.22768 10.6661 9.13842 10.684 8.79032 10.684C8.44222 10.684 8.35296 10.6661 8.12982 10.559C7.99147 10.4921 7.79065 10.3537 7.68354 10.2466C7.57643 10.144 7.43808 9.94763 7.3756 9.81375C7.30866 9.67986 7.21048 9.52366 7.15246 9.47457C7.09891 9.42102 7.00519 9.35408 6.94717 9.3273C6.89362 9.30052 6.75081 9.27821 6.63478 9.27821C6.48304 9.27821 6.37147 9.30945 6.26882 9.37639C6.18849 9.43441 6.08585 9.55044 6.03676 9.63523Z" fill="#D2DCF7"/>
</svg>
