<svg width="30" height="30" viewBox="0 0 30 30" fill="none" xmlns="http://www.w3.org/2000/svg">
<path fill-rule="evenodd" clip-rule="evenodd" d="M14.23 4.08917C14.0951 4.17157 13.8592 4.62186 12.3019 7.76945L10.5276 11.3558L10.3461 11.3846C10.2463 11.4005 8.56134 11.6245 6.60178 11.8823C4.64221 12.1401 2.95881 12.3735 2.86088 12.401C2.64884 12.4605 2.50023 12.6719 2.5 12.9145C2.49981 13.068 2.67167 13.25 5.34728 15.931L8.1947 18.7841L7.42395 22.6483C6.70552 26.2505 6.65761 26.5231 6.71752 26.668C6.79155 26.847 7.01282 26.9998 7.19841 27C7.27309 27.0001 8.80845 26.2583 10.8906 25.2161C12.8511 24.2349 14.4885 23.432 14.5294 23.432C14.5702 23.432 16.2002 24.2349 18.1515 25.2161C20.1028 26.1974 21.7515 27.0001 21.8153 27C21.9903 26.9998 22.2122 26.8426 22.2845 26.6678C22.3446 26.5227 22.2972 26.2532 21.5817 22.6676L20.8145 18.823L23.5818 16.0452C25.1037 14.5174 26.3834 13.2152 26.4256 13.1514C26.6009 12.8857 26.4506 12.4886 26.1411 12.4C26.0088 12.3621 18.6522 11.366 18.5048 11.366C18.4905 11.366 17.6788 9.74949 16.701 7.77372C15.1476 4.63514 14.9038 4.16969 14.7706 4.08837C14.5773 3.97029 14.4243 3.97053 14.23 4.08917ZM10.0777 14.5551C10.2392 14.6537 10.2534 14.6866 10.9671 16.612C11.1703 17.1604 11.3488 17.6094 11.3636 17.6097C11.3784 17.61 11.6403 16.9424 11.9454 16.1261C12.4475 14.783 12.5141 14.6335 12.6451 14.5535C13.0116 14.3296 13.4515 14.5756 13.4355 14.9953C13.4323 15.0779 13.0694 16.1067 12.6291 17.2816C11.7445 19.6417 11.7263 19.6761 11.3601 19.6761C10.9968 19.6761 10.9782 19.6407 10.0962 17.2778C9.58154 15.8992 9.29735 15.0749 9.29735 14.9609C9.29735 14.8222 9.33186 14.7494 9.45674 14.6243C9.64407 14.4367 9.84683 14.4141 10.0777 14.5551ZM14.7089 14.5105C14.775 14.5356 14.8712 14.6254 14.9227 14.71C15.0128 14.8579 15.0163 14.9476 15.0163 17.0704C15.0163 19.1931 15.0128 19.2828 14.9227 19.4308C14.7446 19.7233 14.3902 19.7623 14.1447 19.5164L13.9853 19.3568V17.0704V14.7839L14.1447 14.6243C14.3134 14.4554 14.4774 14.4223 14.7089 14.5105ZM18.2596 14.5898C18.569 14.7328 18.8676 15.0256 19.0276 15.3431C19.1467 15.5796 19.1646 15.6669 19.165 16.014C19.1654 16.3466 19.1452 16.4561 19.0439 16.6713C18.7556 17.2834 18.1771 17.6103 17.3822 17.6103H17.1352L17.1188 18.4671C17.105 19.1894 17.0894 19.3431 17.0199 19.4458C16.8667 19.6722 16.5816 19.7364 16.3233 19.6025C16.0528 19.4624 16.048 19.4188 16.048 17.0789C16.048 15.6154 16.0646 14.9005 16.101 14.7959C16.1302 14.7121 16.2198 14.6025 16.3003 14.5522C16.4329 14.4693 16.5207 14.462 17.2434 14.4747C17.9426 14.4869 18.0673 14.501 18.2596 14.5898ZM17.1262 16.014V16.5305H17.4674C17.8452 16.5305 17.9715 16.473 18.0876 16.2482C18.1771 16.0747 18.1757 15.996 18.0792 15.7923C17.9807 15.5845 17.783 15.4976 17.409 15.4976H17.1262V16.014Z" fill="#D2DCF7"/>
</svg>
